<mxfile host="app.diagrams.net" modified="2022-09-09T02:11:29.938Z" agent="5.0 (Macintosh; Intel Mac OS X 10_15_7) AppleWebKit/537.36 (KHTML, like Gecko) Chrome/105.0.0.0 Safari/537.36" etag="Nmhre4NQl3C9SNQVcBWR" version="20.2.8" type="github">
  <diagram id="7EN39kjFgi81-hKhbYbJ" name="Page-1">
    <mxGraphModel dx="519" dy="324" grid="1" gridSize="10" guides="1" tooltips="1" connect="1" arrows="1" fold="1" page="1" pageScale="1" pageWidth="827" pageHeight="1169" math="0" shadow="0">
      <root>
        <mxCell id="0" />
        <mxCell id="1" parent="0" />
        <mxCell id="N6adh-egThwTnPxHXaX3-1" value="" style="rounded=0;whiteSpace=wrap;html=1;" vertex="1" parent="1">
          <mxGeometry x="100" y="70" width="120" height="270" as="geometry" />
        </mxCell>
        <mxCell id="N6adh-egThwTnPxHXaX3-2" value="" style="rounded=0;whiteSpace=wrap;html=1;" vertex="1" parent="1">
          <mxGeometry x="250" y="70" width="250" height="190" as="geometry" />
        </mxCell>
        <mxCell id="N6adh-egThwTnPxHXaX3-3" value="" style="rounded=0;whiteSpace=wrap;html=1;" vertex="1" parent="1">
          <mxGeometry x="530" y="70" width="120" height="270" as="geometry" />
        </mxCell>
        <mxCell id="N6adh-egThwTnPxHXaX3-4" value="" style="shape=umlActor;verticalLabelPosition=bottom;verticalAlign=top;html=1;outlineConnect=0;" vertex="1" parent="1">
          <mxGeometry x="120" y="110" width="10" height="20" as="geometry" />
        </mxCell>
        <mxCell id="N6adh-egThwTnPxHXaX3-5" value="" style="rounded=0;whiteSpace=wrap;html=1;" vertex="1" parent="1">
          <mxGeometry x="150" y="110" width="40" height="20" as="geometry" />
        </mxCell>
        <mxCell id="N6adh-egThwTnPxHXaX3-6" value="" style="rounded=0;whiteSpace=wrap;html=1;" vertex="1" parent="1">
          <mxGeometry x="120" y="170" width="40" height="130" as="geometry" />
        </mxCell>
        <mxCell id="N6adh-egThwTnPxHXaX3-7" value="" style="rounded=0;whiteSpace=wrap;html=1;fillColor=#dae8fc;strokeColor=#6c8ebf;" vertex="1" parent="1">
          <mxGeometry x="280" y="90" width="190" height="70" as="geometry" />
        </mxCell>
        <mxCell id="N6adh-egThwTnPxHXaX3-8" value="" style="rounded=0;whiteSpace=wrap;html=1;" vertex="1" parent="1">
          <mxGeometry x="280" y="180" width="190" height="50" as="geometry" />
        </mxCell>
        <mxCell id="N6adh-egThwTnPxHXaX3-9" value="" style="rounded=1;whiteSpace=wrap;html=1;" vertex="1" parent="1">
          <mxGeometry x="250" y="280" width="250" height="60" as="geometry" />
        </mxCell>
        <mxCell id="N6adh-egThwTnPxHXaX3-10" value="" style="rounded=0;whiteSpace=wrap;html=1;" vertex="1" parent="1">
          <mxGeometry x="565" y="90" width="50" height="170" as="geometry" />
        </mxCell>
        <mxCell id="N6adh-egThwTnPxHXaX3-16" value="" style="group" vertex="1" connectable="0" parent="1">
          <mxGeometry x="690" y="50" width="50" height="48" as="geometry" />
        </mxCell>
        <mxCell id="N6adh-egThwTnPxHXaX3-14" value="" style="shape=image;verticalLabelPosition=bottom;labelBackgroundColor=default;verticalAlign=top;aspect=fixed;imageAspect=0;image=data:image/svg+xml,PHN2ZyB4bWxuczp4bGluaz0iaHR0cDovL3d3dy53My5vcmcvMTk5OS94bGluayIgeG1sbnM9Imh0dHA6Ly93d3cudzMub3JnLzIwMDAvc3ZnIiB2ZXJzaW9uPSIxLjEiIHZpZXdCb3g9IjAgMCA4NjAgNDg4IiBoZWlnaHQ9IjQ4OHB4IiB3aWR0aD0iODYwcHgiPiYjeGE7ICAgIDx0aXRsZT5jYXRlZ29yeS1jbG91ZC1wbGF0Zm9ybTwvdGl0bGU+JiN4YTsgICAgPGcgZmlsbC1ydWxlPSJldmVub2RkIiBmaWxsPSJub25lIiBzdHJva2Utd2lkdGg9IjEiIHN0cm9rZT0ibm9uZSIgaWQ9IlBsYW5zLWFuZC1QcmljaW5nIj4mI3hhOyAgICAgICAgPGltYWdlIHhsaW5rOmhyZWY9ImRhdGE6aW1hZ2UvcG5nO2Jhc2U2NCxpVkJPUncwS0dnb0FBQUFOU1VoRVVnQUFCQW9BQUFRS0NBWUFBQURKcEpnc0FBQUFBWE5TUjBJQXJzNGM2UUFBQUVSbFdFbG1UVTBBS2dBQUFBZ0FBWWRwQUFRQUFBQUJBQUFBR2dBQUFBQUFBNkFCQUFNQUFBQUJBQUVBQUtBQ0FBUUFBQUFCQUFBRUNxQURBQVFBQUFBQkFBQUVDZ0FBQUFDclFTM2xBQUJBQUVsRVFWUjRBZXpkVFhJY3liWWdadFpWdmU2V3JLVkNTeU9aeVl4WkprMWs5bVRFM1lDWU5kS1F1QXVRTVdzRmhWb0JreXU0cUJWVWNnVVhIR3BVeWQ1QWdXWWF0RXlEbTV6MXJFRk45TnV2ZEx4ZWdBR3k4Sk5BbnZqMUw4eWNHY3lNT083K1JTQVFjZElqOE5WdnYvMzJ4RVNBQUFFQ0JBZ1FJRUNBQUFFQ0JBZ1FLQUovd2tDQUFBRUNCQWdRSUVDQUFBRUNCQWdRdUJLUUtMaVM4RXFBQUFFQ0JBZ1FJRUNBQUFFQ0JBZ1lVV0FmSUVDQUFBRUNCQWdRSUVDQUFBRUNCRm9CSXdwYUMzTUVDQkFnUUlBQUFRSUVDQkFnUUtCNkFZbUM2bmNCQUFRSUVDQkFnQUFCQWdRSUVDQkFvQldRS0dndHpCRWdRSUFBQVFJRUNCQWdRSUFBZ2VvRkpBcXEzd1VBRUNCQWdBQUJBZ1FJRUNCQWdBQ0JWa0Npb0xVd1I0QUFBUUlFQ0JBZ1FJQUFBUUlFcWhlUUtLaCtGd0JBZ0FBQkFnUUlFQ0JBZ0FBQkFnUmFBWW1DMXNJY0FRSUVDQkFnUUlBQUFRSUVDQkNvWGtDaW9QcGRBQUFCQWdRSUVDQkFnQUFCQWdRSUVHZ0ZKQXBhQzNNRUNCQWdRSUFBQVFJRUNCQWdRS0I2QVltQzZuY0JBQVFJRUNCQWdBQUJBZ1FJRUNCQW9CV1FLR2d0ekJFZ1FJQUFBUUlFQ0JBZ1FJQUFnZW9GSkFxcTN3VUFFQ0JBZ0FBQkFnUUlFQ0JBZ0FDQlZrQ2lvTFV3UjRBQUFRSUVDQkFnUUlBQUFRSUVxaGVRS0toK0Z3QkFnQUFCQWdRSUVDQkFnQUFCQWdSYUFZbUMxc0ljQVFJRUNCQWdRSUFBQVFJRUNCQ29Ya0Npb1BwZEFBQUJBZ1FJRUNCQWdBQUJBZ1FJRUdnRkpBcGFDM01FQ0JBZ1FJQUFBUUlFQ0JBZ1FLQjZBWW1DNm5jQkFBUUlFQ0JBZ0FBQkFnUUlFQ0JBb0JXUUtHZ3R6QkVnUUlBQUFRSUVDQkFnUUlBQWdlb0ZKQXFxM3dVQUVDQkFnQUFCQWdRSUVDQkFnQUNCVmtDaW9MVXdSNEFBQVFJRUNCQWdRSUFBQVFJRXFoZVFLS2grRndCQWdBQUJBZ1FJRUNCQWdBQUJBZ1JhQVltQzFzSWNBUUlFQ0JBZ1FJQUFBUUlFQ0JDb1hrQ2lvUHBkQUFBQkFnUUlFQ0JBZ0FBQkFnUUlFR2dGSkFwYUMzTUVDQkFnUUlBQUFRSUVDQkFnUUtCNkFZbUM2bmNCQUFRSUVDQkFnQUFCQWdRSUVDQkFvQldRS0dndHpCRWdRSUFBQVFJRUNCQWdRSUFBZ2VvRkpBcXEzd1VBRUNCQWdBQUJBZ1FJRUNCQWdBQ0JWa0Npb0xVd1I0QUFBUUlFQ0JBZ1FJQUFBUUlFcWhlUUtLaCtGd0JBZ0FBQkFnUUlFQ0JBZ0FBQkFnUmFBWW1DMXNJY0FRSUVDQkFnUUlBQUFRSUVDQkNvWGtDaW9QcGRBQUFCQWdRSUVDQkFnQUFCQWdRSUVHZ0ZKQXBhQzNNRUNCQWdRSUFBQVFJRUNCQWdRS0I2QVltQzZuY0JBQVFJRUNCQWdBQUJBZ1FJRUNCQW9CV1FLR2d0ekJFZ1FJQUFBUUlFQ0JBZ1FJQUFnZW9GSkFxcTN3VUFFQ0JBZ0FBQkFnUUlFQ0JBZ0FDQlZrQ2lvTFV3UjRBQUFRSUVDQkFnUUlBQUFRSUVxaGVRS0toK0Z3QkFnQUFCQWdRSUVDQkFnQUFCQWdSYUFZbUMxc0ljQVFJRUNCQWdRSUFBQVFJRUNCQ29Ya0Npb1BwZEFBQUJBZ1FJRUNCQWdBQUJBZ1FJRUdnRkpBcGFDM01FQ0JBZ1FJQUFBUUlFQ0JBZ1FLQjZBWW1DNm5jQkFBUUlFQ0JBZ0FBQkFnUUlFQ0JBb0JXUUtHZ3R6QkVnUUlBQUFRSUVDQkFnUUlBQWdlb0ZKQXFxM3dVQUVDQkFnQUFCQWdRSUVDQkFnQUNCVmtDaW9MVXdSNEFBQVFJRUNCQWdRSUFBQVFJRXFoZVFLS2grRndCQWdBQUJBZ1FJRUNCQWdBQUJBZ1JhQVltQzFzSWNBUUlFQ0JBZ1FJQUFBUUlFQ0JDb1hrQ2lvUHBkQUFBQkFnUUlFQ0JBZ0FBQkFnUUlFR2dGSkFwYUMzTUVDQkFnUUlBQUFRSUVDQkFnUUtCNkFZbUM2bmNCQUFRSUVDQkFnQUFCQWdRSUVDQkFvQldRS0dndHpCRWdRSUFBQVFJRUNCQWdRSUFBZ2VvRkpBcXEzd1VBRUNCQWdBQUJBZ1FJRUNCQWdBQ0JWa0Npb0xVd1I0QUFBUUlFQ0JBZ1FJQUFBUUlFcWhlUUtLaCtGd0JBZ0FBQkFnUUlFQ0JBZ0FBQkFnUmFBWW1DMXNJY0FRSUVDQkFnUUlBQUFRSUVDQkNvWGtDaW9QcGRBQUFCQWdRSUVDQkFnQUFCQWdRSUVHZ0ZKQXBhQzNNRUNCQWdRSUFBQVFJRUNCQWdRS0I2QVltQzZuY0JBQVFJRUNCQWdBQUJBZ1FJRUNCQW9CV1FLR2d0ekJFZ1FJQUFBUUlFQ0JBZ1FJQUFnZW9GSkFxcTN3VUFFQ0JBZ0FBQkFnUUlFQ0JBZ0FDQlZrQ2lvTFV3UjRBQUFRSUVDQkFnUUlBQUFRSUVxaGVRS0toK0Z3QkFnQUFCQWdRSUVDQkFnQUFCQWdSYUFZbUMxc0ljQVFJRUNCQWdRSUFBQVFJRUNCQ29Ya0Npb1BwZEFBQUJBZ1FJRUNCQWdBQUJBZ1FJRUdnRkpBcGFDM01FQ0JBZ1FJQUFBUUlFQ0JBZ1FLQjZBWW1DNm5jQkFBUUlFQ0JBZ0FBQkFnUUlFQ0JBb0JXUUtHZ3R6QkVnUUlBQUFRSUVDQkFnUUlBQWdlb0ZKQXFxM3dVQUVDQkFnQUFCQWdRSUVDQkFnQUNCVmtDaW9MVXdSNEFBQVFJRUNCQWdRSUFBQVFJRXFoZVFLS2grRndCQWdBQUJBZ1FJRUNCQWdBQUJBZ1JhQVltQzFzSWNBUUlFQ0JBZ1FJQUFBUUlFQ0JDb1hrQ2lvUHBkQUFBQkFnUUlFQ0JBZ0FBQkFnUUlFR2dGSkFwYUMzTUVDQkFnUUlBQUFRSUVDQkFnUUtCNkFZbUM2bmNCQUFRSUVDQkFnQUFCQWdRSUVDQkFvQldRS0dndHpCRWdRSUFBQVFJRUNCQWdRSUFBZ2VvRkpBcXEzd1VBRUNCQWdBQUJBZ1FJRUNCQWdBQ0JWa0Npb0xVd1I0QUFBUUlFQ0JBZ1FJQUFBUUlFcWhlUUtLaCtGd0JBZ0FBQkFnUUlFQ0JBZ0FBQkFnUmFBWW1DMXNJY0FRSUVDQkFnUUlBQUFRSUVDQkNvWGtDaW9QcGRBQUFCQWdRSUVDQkFnQUFCQWdRSUVHZ0ZKQXBhQzNNRUNCQWdRSUFBQVFJRUNCQWdRS0I2QVltQzZuY0JBQVFJRUNCQWdBQUJBZ1FJRUNCQW9CV1FLR2d0ekJFZ1FJQUFBUUlFQ0JBZ1FJQUFnZW9GSkFxcTN3VUFFQ0JBZ0FBQkFnUUlFQ0JBZ0FDQlZrQ2lvTFV3UjRBQUFRSUVDQkFnUUlBQUFRSUVxaGVRS0toK0Z3QkFnQUFCQWdRSUVDQkFnQUFCQWdSYUFZbUMxc0ljQVFJRUNCQWdRSUFBQVFJRUNCQ29Ya0Npb1BwZEFBQUJBZ1FJRUNCQWdBQUJBZ1FJRUdnRkpBcGFDM01FQ0JBZ1FJQUFBUUlFQ0JBZ1FLQjZBWW1DNm5jQkFBUUlFQ0JBZ0FBQkFnUUlFQ0JBb0JXUUtHZ3R6QkVnUUlBQUFRSUVDQkFnUUlBQWdlb0ZKQXFxM3dVQUVDQkFnQUFCQWdRSUVDQkFnQUNCVmtDaW9MVXdSNEFBQVFJRUNCQWdRSUFBQVFJRXFoZVFLS2grRndCQWdBQUJBZ1FJRUNCQWdBQUJBZ1JhQVltQzFzSWNBUUlFQ0JBZ1FJQUFBUUlFQ0JDb1hrQ2lvUHBkQUFBQkFnUUlFQ0JBZ0FBQkFnUUlFR2dGSkFwYUMzTUVDQkFnUUlBQUFRSUVDQkFnUUtCNkFZbUM2bmNCQUFRSUVDQkFnQUFCQWdRSUVDQkFvQldRS0dndHpCRWdRSUFBQVFJRUNCQWdRSUFBZ2VvRkpBcXEzd1VBRUNCQWdBQUJBZ1FJRUNCQWdBQ0JWa0Npb0xVd1I0QUFBUUlFQ0JBZ1FJQUFBUUlFcWhlUUtLaCtGd0JBZ0FBQkFnUUlFQ0JBZ0FBQkFnUmFBWW1DMXNJY0FRSUVDQkFnUUlBQUFRSUVDQkNvWGtDaW9QcGRBQUFCQWdRSUVDQkFnQUFCQWdRSUVHZ0ZKQXBhQzNNRUNCQWdRSUFBQVFJRUNCQWdRS0I2QVltQzZuY0JBQVFJRUNCQWdBQUJBZ1FJRUNCQW9CV1FLR2d0ekJFZ1FJQUFBUUlFQ0JBZ1FJQUFnZW9GSkFxcTN3VUFFQ0JBZ0FBQkFnUUlFQ0JBZ0FDQlZrQ2lvTFV3UjRBQUFRSUVDQkFnUUlBQUFRSUVxaGVRS0toK0Z3QkFnQUFCQWdRSUVDQkFnQUFCQWdSYUFZbUMxc0ljQVFJRUNCQWdRSUFBQVFJRUNCQ29Ya0Npb1BwZEFBQUJBZ1FJRUNCQWdBQUJBZ1FJRUdnRkpBcGFDM01FQ0JBZ1FJQUFBUUlFQ0JBZ1FLQjZBWW1DNm5jQkFBUUlFQ0JBZ0FBQkFnUUlFQ0JBb0JXUUtHZ3R6QkVnUUlBQUFRSUVDQkFnUUlBQWdlb0ZKQXFxM3dVQUVDQkFnQUFCQWdRSUVDQkFnQUNCVmtDaW9MVXdSNEFBQVFJRUNCQWdRSUFBQVFJRXFoZVFLS2grRndCQWdBQUJBZ1FJRUNCQWdBQUJBZ1JhQVltQzFzSWNBUUlFQ0JBZ1FJQUFBUUlFQ0JDb1hrQ2lvUHBkQUFBQkFnUUlFQ0JBZ0FBQkFnUUlFR2dGSkFwYUMzTUVDQkFnUUlBQUFRSUVDQkFnUUtCNkFZbUM2bmNCQUFRSUVDQkFnQUFCQWdRSUVDQkFvQldRS0dndHpCRWdRSUFBQVFJRUNCQWdRSUFBZ2VvRkpBcXEzd1VBRUNCQWdBQUJBZ1FJRUNCQWdBQ0JWa0Npb0xVd1I0QUFBUUlFQ0JBZ1FJQUFBUUlFcWhlUUtLaCtGd0JBZ0FBQkFnUUlFQ0JBZ0FBQkFnUmFBWW1DMXNJY0FRSUVDQkFnUUlBQUFRSUVDQkNvWGtDaW9QcGRBQUFCQWdRSUVDQkFnQUFCQWdRSUVHZ0ZKQXBhQzNNRUNCQWdRSUFBQVFJRUNCQWdRS0I2QVltQzZuY0JBQVFJRUNCQWdBQUJBZ1FJRUNCQW9CV1FLR2d0ekJFZ1FJQUFBUUlFQ0JBZ1FJQUFnZW9GSkFxcTN3VUFFQ0JBZ0FBQkFnUUlFQ0JBZ0FDQlZrQ2lvTFV3UjRBQUFRSUVDQkFnUUlBQUFRSUVxaGVRS0toK0Z3QkFnQUFCQWdRSUVDQkFnQUFCQWdSYUFZbUMxc0ljQVFJRUNCQWdRSUFBQVFJRUNCQ29Ya0Npb1BwZEFBQUJBZ1FJRUNCQWdBQUJBZ1FJRUdnRkpBcGFDM01FQ0JBZ1FJQUFBUUlFQ0JBZ1FLQjZBWW1DNm5jQkFBUUlFQ0JBZ0FBQkFnUUlFQ0JBb0JXUUtHZ3R6QkVnUUlBQUFRSUVDQkFnUUlBQWdlb0ZKQXFxM3dVQUVDQkFnQUFCQWdRSUVDQkFnQUNCVmtDaW9MVXdSNEFBQVFJRUNCQWdRSUFBQVFJRXFoZVFLS2grRndCQWdBQUJBZ1FJRUNCQWdBQUJBZ1JhQVltQzFzSWNBUUlFQ0JBZ1FJQUFBUUlFQ0JDb1hrQ2lvUHBkQUFBQkFnUUlFQ0JBZ0FBQkFnUUlFR2dGSkFwYUMzTUVDQkFnUUlBQUFRSUVDQkFnUUtCNkFZbUM2bmNCQUFRSUVDQkFnQUFCQWdRSUVDQkFvQldRS0dndHpCRWdRSUFBQVFJRUNCQWdRSUFBZ2VvRkpBcXEzd1VBRUNCQWdBQUJBZ1FJRUNCQWdBQ0JWa0Npb0xVd1I0QUFBUUlFQ0JBZ1FJQUFBUUlFcWhlUUtLaCtGd0JBZ0FBQkFnUUlFQ0JBZ0FBQkFnUmFBWW1DMXNJY0FRSUVDQkFnUUlBQUFRSUVDQkNvWGtDaW9QcGRBQUFCQWdRSUVDQkFnQUFCQWdRSUVHZ0ZKQXBhQzNNRUNCQWdRSUFBQVFJRUNCQWdRS0I2QVltQzZuY0JBQVFJRUNCQWdBQUJBZ1FJRUNCQW9CV1FLR2d0ekJFZ1FJQUFBUUlFQ0JBZ1FJQUFnZW9GSkFxcTN3VUFFQ0JBZ0FBQkFnUUlFQ0JBZ0FDQlZrQ2lvTFV3UjRBQUFRSUVDQkFnUUlBQUFRSUVxaGVRS0toK0Z3QkFnQUFCQWdRSUVDQkFnQUFCQWdSYUFZbUMxc0ljQVFJRUNCQWdRSUFBQVFJRUNCQ29Ya0Npb1BwZEFBQUJBZ1FJRUNCQWdBQUJBZ1FJRUdnRkpBcGFDM01FQ0JBZ1FJQUFBUUlFQ0JBZ1FLQjZBWW1DNm5jQkFBUUlFQ0JBZ0FBQkFnUUlFQ0JBb0JXUUtHZ3R6QkVnUUlBQUFRSUVDQkFnUUlBQWdlb0ZKQXFxM3dVQUVDQkFnQUFCQWdRSUVDQkFnQUNCVmtDaW9MVXdSNEFBQVFJRUNCQWdRSUFBQVFJRXFoZVFLS2grRndCQWdBQUJBZ1FJRUNCQWdBQUJBZ1JhQVltQzFzSWNBUUlFQ0JBZ1FJQUFBUUlFQ0JDb1hrQ2lvUHBkQUFBQkFnUUlFQ0JBZ0FBQkFnUUlFR2dGSkFwYUMzTUVDQkFnUUlBQUFRSUVDQkFnUUtCNkFZbUM2bmNCQUFRSUVDQkFnQUFCQWdRSUVDQkFvQldRS0dndHpCRWdRSUFBQVFJRUNCQWdRSUFBZ2VvRkpBcXEzd1VBRUNCQWdBQUJBZ1FJRUNCQWdBQ0JWa0Npb0xVd1I0QUFBUUlFQ0JBZ1FJQUFBUUlFcWhlUUtLaCtGd0JBZ0FBQkFnUUlFQ0JBZ0FBQkFnUmFBWW1DMXNJY0FRSUVDQkFnUUlBQUFRSUVDQkNvWGtDaW9QcGRBQUFCQWdRSUVDQkFnQUFCQWdRSUVHZ0ZKQXBhQzNNRUNCQWdRSUFBQVFJRUNCQWdRS0I2QVltQzZuY0JBQVFJRUNCQWdBQUJBZ1FJRUNCQW9CV1FLR2d0ekJFZ1FJQUFBUUlFQ0JBZ1FJQUFnZW9GSkFxcTN3VUFFQ0JBZ0FBQkFnUUlFQ0JBZ0FDQlZrQ2lvTFV3UjRBQUFRSUVDQkFnUUlBQUFRSUVxaGVRS0toK0Z3QkFnQUFCQWdRSUVDQkFnQUFCQWdSYUFZbUMxc0ljQVFJRUNCQWdRSUFBQVFJRUNCQ29Ya0Npb1BwZEFBQUJBZ1FJRUNCQWdBQUJBZ1FJRUdnRkpBcGFDM01FQ0JBZ1FJQUFBUUlFQ0JBZ1FLQjZBWW1DNm5jQkFBUUlFQ0JBZ0FBQkFnUUlFQ0JBb0JXUUtHZ3R6QkVnUUlBQUFRSUVDQkFnUUlBQWdlb0ZKQXFxM3dVQUVDQkFnQUFCQWdRSUVDQkFnQUNCVmtDaW9MVXdSNEFBQVFJRUNCQWdRSUFBQVFJRXFoZVFLS2grRndCQWdBQUJBZ1FJRUNCQWdBQUJBZ1JhQVltQzFzSWNBUUlFQ0JBZ1FJQUFBUUlFQ0JDb1hrQ2lvUHBkQUFBQkFnUUlFQ0JBZ0FBQkFnUUlFR2dGSkFwYUMzTUVDQkFnUUlBQUFRSUVDQkFnUUtCNkFZbUM2bmNCQUFRSUVDQkFnQUFCQWdRSUVDQkFvQldRS0dndHpCRWdRSUFBQVFJRUNCQWdRSUFBZ2VvRkpBcXEzd1VBRUNCQWdBQUJBZ1FJRUNCQWdBQ0JWa0Npb0xVd1I0QUFBUUlFQ0JBZ1FJQUFBUUlFcWhlUUtLaCtGd0JBZ0FBQkFnUUlFQ0JBZ0FBQkFnUmFBWW1DMXNJY0FRSUVDQkFnUUlBQUFRSUVDQkNvWGtDaW9QcGRBQUFCQWdRSUVDQkFnQUFCQWdRSUVHZ0ZKQXBhQzNNRUNCQWdRSUFBQVFJRUNCQWdRS0I2QVltQzZuY0JBQVFJRUNCQWdBQUJBZ1FJRUNCQW9CV1FLR2d0ekJFZ1FJQUFBUUlFQ0JBZ1FJQUFnZW9GSkFxcTN3VUFFQ0JBZ0FBQkFnUUlFQ0JBZ0FDQlZrQ2lvTFV3UjRBQUFRSUVDQkFnUUlBQUFRSUVxaGVRS0toK0Z3QkFnQUFCQWdRSUVDQkFnQUFCQWdSYUFZbUMxc0ljQVFJRUNCQWdRSUFBQVFJRUNCQ29Ya0Npb1BwZEFBQUJBZ1FJRUNCQWdBQUJBZ1FJRUdnRkpBcGFDM01FQ0JBZ1FJQUFBUUlFQ0JBZ1FLQjZBWW1DNm5jQkFBUUlFQ0JBZ0FBQkFnUUlFQ0JBb0JXUUtHZ3R6QkVnUUlBQUFRSUVDQkFnUUlBQWdlb0ZKQXFxM3dVQUVDQkFnQUFCQWdRSUVDQkFnQUNCVmtDaW9MVXdSNEFBQVFJRUNCQWdRSUFBQVFJRXFoZVFLS2grRndCQWdBQUJBZ1FJRUNCQWdBQUJBZ1JhQVltQzFzSWNBUUlFQ0JBZ1FJQUFBUUlFQ0JDb1hrQ2lvUHBkQUFBQkFnUUlFQ0JBZ0FBQkFnUUlFR2dGSkFwYUMzTUVDQkFnUUlBQUFRSUVDQkFnUUtCNkFZbUM2bmNCQUFRSUVDQkFnQUFCQWdRSUVDQkFvQldRS0dndHpCRWdRSUFBQVFJRUNCQWdRSUFBZ2VvRkpBcXEzd1VBRUNCQWdBQUJBZ1FJRUNCQWdBQ0JWa0Npb0xVd1I0QUFBUUlFQ0JBZ1FJQUFBUUlFcWhlUUtLaCtGd0JBZ0FBQkFnUUlFQ0JBZ0FBQkFnUmFBWW1DMXNJY0FRSUVDQkFnUUlBQUFRSUVDQkNvWGtDaW9QcGRBQUFCQWdRSUVDQkFnQUFCQWdRSUVHZ0ZKQXBhQzNNRUNCQWdRSUFBQVFJRUNCQWdRS0I2QVltQzZuY0JBQVFJRUNCQWdBQUJBZ1FJRUNCQW9CV1FLR2d0ekJFZ1FJQUFBUUlFQ0JBZ1FJQUFnZW9GSkFxcTN3VUFFQ0JBZ0FBQkFnUUlFQ0JBZ0FDQlZrQ2lvTFV3UjRBQUFRSUVDQkFnUUlBQUFRSUVxaGVRS0toK0Z3QkFnQUFCQWdRSUVDQkFnQUFCQWdSYUFZbUMxc0ljQVFJRUNCQWdRSUFBQVFJRUNCQ29Ya0Npb1BwZEFBQUJBZ1FJRUNCQWdBQUJBZ1FJRUdnRkpBcGFDM01FQ0JBZ1FJQUFBUUlFQ0JBZ1FLQjZBWW1DNm5jQkFBUUlFQ0JBZ0FBQkFnUUlFQ0JBb0JXUUtHZ3R6QkVnUUlBQUFRSUVDQkFnUUlBQWdlb0ZKQXFxM3dVQUVDQkFnQUFCQWdRSUVDQkFnQUNCVmtDaW9MVXdSNEFBQVFJRUNCQWdRSUFBQVFJRXFoZVFLS2grRndCQWdBQUJBZ1FJRUNCQWdBQUJBZ1JhQVltQzFzSWNBUUlFQ0JBZ1FJQUFBUUlFQ0JDb1hrQ2lvUHBkQUFBQkFnUUlFQ0JBZ0FBQkFnUUlFR2dGSkFwYUMzTUVDQkFnUUlBQUFRSUVDQkFnUUtCNkFZbUM2bmNCQUFRSUVDQkFnQUFCQWdRSUVDQkFvQldRS0dndHpCRWdRSUFBQVFJRUNCQWdRSUFBZ2VvRkpBcXEzd1VBRUNCQWdBQUJBZ1FJRUNCQWdBQ0JWa0Npb0xVd1I0QUFBUUlFQ0JBZ1FJQUFBUUlFcWhlUUtLaCtGd0JBZ0FBQkFnUUlFQ0JBZ0FBQkFnUmFBWW1DMXNJY0FRSUVDQkFnUUlBQUFRSUVDQkNvWGtDaW9QcGRBQUFCQWdRSUVDQkFnQUFCQWdRSUVHZ0ZKQXBhQzNNRUNCQWdRSUFBQVFJRUNCQWdRS0I2QVltQzZuY0JBQVFJRUNCQWdBQUJBZ1FJRUNCQW9CV1FLR2d0ekJFZ1FJQUFBUUlFQ0JBZ1FJQUFnZW9GSkFxcTN3VUFFQ0JBZ0FBQkFnUUlFQ0JBZ0FDQlZrQ2lvTFV3UjRBQUFRSUVDQkFnUUlBQUFRSUVxaGVRS0toK0Z3QkFnQUFCQWdRSUVDQkFnQUFCQWdSYUFZbUMxc0ljQVFJRUNCQWdRSUFBQVFJRUNCQ29Ya0Npb1BwZEFBQUJBZ1FJRUNCQWdBQUJBZ1FJRUdnRkpBcGFDM01FQ0JBZ1FJQUFBUUlFQ0JBZ1FLQjZBWW1DNm5jQkFBUUlFQ0JBZ0FBQkFnUUlFQ0JBb0JXUUtHZ3R6QkVnUUlBQUFRSUVDQkFnUUlBQWdlb0ZKQXFxM3dVQUVDQkFnQUFCQWdRSUVDQkFnQUNCVmtDaW9MVXdSNEFBQVFJRUNCQWdRSUFBQVFJRXFoZVFLS2grRndCQWdBQUJBZ1FJRUNCQWdBQUJBZ1JhQVltQzFzSWNBUUlFQ0JBZ1FJQUFBUUlFQ0JDb1hrQ2lvUHBkQUFBQkFnUUlFQ0JBZ0FBQkFnUUlFR2dGSkFwYUMzTUVDQkFnUUlBQUFRSUVDQkFnUUtCNkFZbUM2bmNCQUFRSUVDQkFnQUFCQWdRSUVDQkFvQldRS0dndHpCRWdRSUFBQVFJRUNCQWdRSUFBZ2VvRkpBcXEzd1VBRUNCQWdBQUJBZ1FJRUNCQWdBQ0JWa0Npb0xVd1I0QUFBUUlFQ0JBZ1FJQUFBUUlFcWhmNHVub0JBQVFJRUNCd284QlhYMzIxaUE5SytYSTZpamVPdjN6emh2OWZ4bnNYTjd4ZjNycjQ3YmZmeXVjbUFnUUlFQ0JBZ0FDQmtRbDhGU2RxSTJ1UzVoQWdRSUJBRndKeDRYOFVjWStiMk12bWRSR3ZwWlJwRWVWcG1SbGdlbmV0em0welh4SUpGMlUrZmxkdHk2dUpBQUVDQkFnUUlFQ2dld0dKZ3U2TjFVQ0FBSUhlQkNJWlVCSUJpeWpsOWFoNUxmOGZLZ0VRVmFkT1Z3bUZiVVM5akhJUlpSZUpoRjI4bWdnUUlFQ0FBQUVDQkJJRUpBb1NFSVVnUUlCQTN3SmZKQVNXVWY4aXlseVNBZEdWUjAwbGliQnJ5cmE4U2lDRWdva0FBUUlFQ0JBZzhFQUJpWUlIZ2xtY0FBRUNmUXMwU1lFeVF1Q3FQTys3RFJPdTcyTzB2WXc2MkRhdjVka0l1NWczRVNCQWdBQUJBZ1FJM0NJZ1VYQUxqTGNKRUNBd2hFRHpISUZsMUYyU0F1VlZVaUFRa3FlU1BOaEcrVDJCNFBrSHlickNFU0JBZ0FBQkFwTVhrQ2lZL0NiVUFRSUVwaXh3TFRHd2pINlU4aXlLcVgrQmN0dkN0aFNKZy83eDFVaUFBQUVDQkFpTVMwQ2lZRnpiUTJzSUVLaEFJSklESjlITlpWTWtCc2E1emE4U0IrZVJPQ2dqRDB3RUNCQWdRSUFBZ1dvRUpBcXEyZFE2U29EQVVBS1JHRmhFM1ZmSmdSZER0VU85anhZb3R5cWNSOW1XMTBnY1hNYXJpUUFCQWdRSUVDQXdXd0dKZ3RsdVdoMGpRR0JJZ1VnT0hFZjlxeWpMS0VZTkJNS01wakxhb0NRT1N0SmdONk4rNlFvQkFnUUlFQ0JBNEhjQmlRSTdBZ0VDQkpJRXJpVUhUaUprN1grcU1FbDE5R0hlUndzM1VTUU5ScitwTkpBQUFRSUVDQkRZVjBDaVlGOHB5eEVnUU9BR0FjbUJHMURxZlV2U29ONXRyK2NFQ0JBZ1FHQldBaElGczlxY09rT0FRQjhDelRNSFZsRlhLVVlPQklMcER3SWxhWEFXeFRNTi9rRGpEUUlFQ0JBZ1FHRHNBaElGWTk5QzJrZUF3Q2dFSWpsd0ZBMHB0eFNzb2p5UFlpS3dyOERiV0hBVHp6TTQzM2NGeXhFZ1FJQUFBUUlFaGhTUUtCaFNYOTBFQ0l4ZW9MbTE0RFFhV3BJRTM0eSt3Um80Wm9FUDBiaVNMRGp6RU1ReGJ5WnRJMENBQUFFQ0JDUUs3QU1FQ0JENFF1RGE2SUdTSVBBWEM3N3c4ZDhVZ2ZLWEUwckNvQ1FPVEFRSUVDQkFnQUNCVVFsSUZJeHFjMmdNQVFKRENqVFBIaWpKZ1ZVVW93ZUczQmoxMUYxR0dXeWlsS1RCWlQzZDFsTUNCQWdRSUVCZ3pBSVNCV1BlT3RwR2dFQXZBcEVnV0VaRkpVSHdvcGNLcDFISngyam14UmROM2NYL1Mzbk10UHhpcGFQNHY5RWFuNk84aWYrdTNaYndPWXIvRVNCQWdBQUJBdjBMU0JUMGI2NUdBZ1JHSWhBSmdsVTBwU1FJYXJwZ0xVL2p2NHhTa2dEbDlXbytacC9zaHJwSWpXMXhIUFVmbFViRXRQejkzeWRQcnQ1YnhQOXIrdXNTNWJhRWtqRFl4cXVKQUFFQ0JBZ1FJTkM3Z0VSQjcrUXFKRUJnYUlFbVFiQ09kc3oxNHJNa0EzWlJMcHJYMytlblByVDlXaktoSkJBV1VhNWU1N3dkeXkwSm0raXJpUUFCQWdRSUVDRFFtNEJFUVcvVUtpSkFZRWlCdU1nOGl2cFBvNnlpek9YQzh1cjJnRzMwNlNKS0dSRlFYcXViWXZzdW85UEhVUmJONi9ONG5jdjBJVHBTUmhoczV0SWgvU0JBZ0FBQkFnVEdMU0JSTU83dG8zVUVDQndvY0MxQlVKSUVVMzVBNFpkSmdZdTRjTndkeURQcjFac1JDQ1Y1VU1veXl0UnZNWkV3aUkxb0lrQ0FBQUVDQkxvWGtDam8zbGdOQkFnTUlEQ0RCRUZKREd5dlNxMGpCYkozbldia3dUTGlsakxWVVFjU0JySHhUQVFJRUNCQWdFQjNBaElGM2RtS1RJREFRQUp4TWJpS3F0ZFJwblNMZ2NSQWJMQytwNGtuRGlRTSt0NWgxRWVBQUFFQ0JDb1JrQ2lvWkVQckpvRWFCQ2FZSUhnZjIrVTh5alpHREd4cjJFWmo3bVBzUDBmUnZtV1VrK1oxS29tbWQ5RmVmeVVoRUV3RUNCQWdRSUJBam9CRVFZNmpLQVFJRENqUWZDdThqaVpNWVNqNTIyam5WWEpnRi9PbWtRckVmblVjVFZ0R1dVV1p3dk1OU3NKZzVka1ZvV0FpUUlBQUFRSUVEaEtRS0RpSXo4b0VDQXdwRUJkeWk2ai9MTXFMS0dPZXJwSUQ1M0VSZHpubWhtcmJ6UUxOdm5ZU242NmlqRDFwOENiYWVHcGZDd1VUQVFJRUNCQWc4Q2dCaVlKSHNWbUpBSUVoQmVLaTdTanFQNDN5YXNoMjNGTzM1TUE5UUZQOWVDSkpnNC9oZXhiSmd2VlVuYldiQUFFQ0JBZ1FHRTVBb21BNGV6VVRJUEFJZ2JoSVc4VnFaMUcrZWNUcVhhL3l2bW1ia1FOZFM0OGsvcldrUVVsY2pmR1pCaCtpWGVWMmhPMUl5RFNEQUFFQ0JBZ1FtSUNBUk1FRU5wSW1FaUR3NUVsY2tCMkhRMGtRak8wNUJPVkM3THkwTFM3R2R2RnFxbFNnMlVkTHd1QWt5dGdTV1dXRVM3a2RZUmV2SmdJRUNCQWdRSURBblFJU0JYZnkrSkFBZ2FFRjR1THJLTnBRTHI3R2RwdEJ1ZkRheElYWCtkQkc2aCtYUUxQUGxtUkIyVy9IOUR5RGNqdEMrZXNJWitNUzB4b0NCQWdRSUVCZ2JBSVNCV1BiSXRwRGdNQW5nYmpnV3NaL05sSEdNcVM3WEdpVmk2eVNJTmpGcTRuQW5RSWpIV1h3UGhwZGJrZTR1TFB4UGlSQWdBQUJBZ1NxRlpBb3FIYlQ2emlCOFFvMDM4aHVvb1V2UnRMS2NtRlZiaTBvYlRJUmVMQkFzMCt2WXNVeXltQXNpYS9YMFpheVgxL0dxNGtBQVFJRUNCQWc4RWxBb3VBVGhSa0NCTVlnRUJkVUo5R09UWlF4M09QOU50cFJMcVMyOFdvaWtDSVErL2dxQXBVeWh1ZHRlTmhoYkFnVEFRSUVDQkFnOExtQVJNSG5IdjVIZ01CQUFpTWJSZkFtR01xOTNMdUJPRlJiZ1VEczg4dm81anJLR0JJR1A1VzJHRjBRQ2lZQ0JBZ1FJRURnaVVTQm5ZQUFnY0VGUmpLSzRHTkFiS0tVRVFTN2VEVVI2RVVnOXY5RlZMU084akxLa0ZNWlhYQVMrNzluRnd5NUZkUk5nQUFCQWdSR0lQQ25FYlJCRXdnUXFGU2dqQ0tJY2hiZC8xdVVvVzQxS0FtQzExRVdjWUYwS2trUUVxWmVCY28rRjJVVmxYNGI1VTJ2bFg5ZVdYbDJ3cS94TTduKy9HMy9JMENBQUFFQ0JHb1RNS0tndGkydXZ3UkdJaEFYSThmUmxQTW81ZUpraUtra0NFcVNvb3dndUJ5aUFlb2tjSk5BL0d3czR2MTFsQ0ZIR0x5UCtzdm9nbDI4bWdnUUlFQ0FBSUhLQkl3b3FHeUQ2eTZCTVFnMDMxaitHbTBaS2tsUXZyVTlqb3NnOTJTUFlZZlFoczhFeXNWNWxGVzhXVVlZdlAzc3cvNys4eXlxdW9pZjFWVi9WYXFKQUFFQ0JBZ1FHSXVBRVFWajJSTGFRYUFDZ2Jqb09JcHVsbEVFendmcWJra1FsT1RBYnFENlZVdmd3UUx4YzdPTWxkWlJodnk1S2JmbEdIa1RHOEZFZ0FBQkFnUnFFSkFvcUdFcjZ5T0JFUWcwRnpzbFNUREVzd2plUmIwbFFiQWRBWVVtRUhpVVFQd01uY1NLWjFHR0dJbFRia1ZZeGMvUXhhTWFieVVDQkFnUUlFQmdVZ0p1UFpqVTV0SllBdE1VaUF1Y2RiVDhseWg5SndrK1JKMS9pWXVicFNSQlNKZ21MUkQ3OEhtVVJYVGl4eWdmZSs1TXVSVmhHei9McTU3clZSMEJBZ1FJRUNBd2dJQVJCUU9ncTVKQUxRSnhVWEVVZlQyUDB2ZVE2WElSZFJZWFZldDROUkdZblVEenM3V09qdjB3UU9mZXhNL1dhb0I2VlVtQUFBRUNCQWowSkNCUjBCTzBhZ2pVSmhBWE1zZlI1NUlrNkh1WTlOdW9zOXhQdll0WEU0RlpDelEvWjJmUnliNlRjZStqempKUzUzTFd3RHBIZ0FBQkFnUXFGWERyUWFVYlhyY0pkQ2tRRnkrcmlMK04wbWVTb054bThGMWN1SnhJRW9TRXFRcUIyTmN2b2l5anN6OUdLU05wK3ByS3JRaTdKbEhSVjUzcUlVQ0FBQUVDQkhvU2tDam9DVm8xQkdvUmlBdUg4dTNtejFINmZCN0I2Nmp2T0M2WXR2RnFJbENkUU96NzVlZHVFYVdNcU9scktqL2p2emFKd2I3cVZBOEJBZ1FJRUNEUWc0QmJEM3BBVmdXQkdnVGlZdUVvK25rZXBjOGgwR1g0c3lleDE3Q0Q2ZVBlQXZHenVJeUZOMUg2SE5IanVRVUJiaUpBZ0FBQkFuTVJNS0pnTGx0U1B3Z01LQkFYSnNkUi9UWktYMG1DTXNUNngvZ1d0WXdpdUloNUV3RUNqVUF6c3FiOFRQN1VJOHJMT0E2VXY0cHcxR09kcWlKQWdBQUJBZ1E2RWpDaW9DTllZUW5VSW5BdFNkRFhyUWJ2d3JhTUl0alZZcXlmQkI0ckVEK2Z5MWgzRTZXdjBRVmxsSS9uaEFTQ2lRQUJBZ1FJVEZuQWlJSXBiejF0SnpDd1FGeUVyS0lKdjBicEswbndPaElFNVVucnU2alRSSURBUFFJRGpDNTRGazI2YUJLSTk3VE94d1FJRUNCQWdNQllCWXdvR091VzBTNENJeGVJQzRIVGFPSmZlMnFtWnhIMEJLMmErUXJFeit4SjlHNFRwWS9FWHJrOXFJejhPWTlYRXdFQ0JBZ1FJREF4QVltQ2lXMHd6U1V3Qm9HNDROaEVPMTcyMUphZjRtS2pKQ1ZNQkFnY0tCQS91MGNSWWhQbHhZR2g5bDM5Ky9qNUxmV1pDQkFnUUlBQWdRa0p1UFZnUWh0TFV3a01MVkF1TW5wTUVwUnZKTCtUSkJoNnE2dC9UZ0x4ODNRWnBZd3MrTEduZnYwY3h3eUp2cDZ3VlVPQUFBRUNCTElFakNqSWtoU0h3TXdGbW04aXQ5SE5jZzl5MTFONVlHRjVJTnBsMXhXSlQ2QldnZmlaUG82K2I2TDA4VFA5Sm42ZVYxR1hpUUFCQWdRSUVKaUFnQkVGRTloSW1raGdhSUdla3dTdjQ0S2lQTEJRa21Eb0RhLytXUXZFejloRmRIQVo1VzBQSFMxL1BuSFRRejJxSUVDQUFBRUNCQklFakNoSVFCU0N3SndGZWt3U2xGc055aWlDN1p3OTlZM0FHQVhpNS93MDJ2WFhIdHBtWkVFUHlLb2dRSUFBQVFLSENrZ1VIQ3BvZlFJekZvaUxoMFYwN3p4SzEwT1QzMGNkL3ZaNklKZ0lEQ1VRUCsvSFVmYzJ5amNkdCtGTnhEODFhcWhqWmVFSkVDQkFnTUFCQWhJRkIrQlpsY0NjQmZxOGFJZ0xodFdjTGZXTndGUUU0dWYrS05xNmpkSkhjdEF0UmxQWk1iU1RBQUVDQktvVDhJeUM2amE1RGhPNFg2REhKTUgza2dUM2J3OUxFT2hMb0h6TEg2V01MQ2pmK25jNWxVVEV0a2xNZEZtUDJBUUlFQ0JBZ01BakJJd29lQVNhVlFqTVdhQ25KSUhuRWN4NUo5SzNXUWpFc1dBVkhmbTU0ODZVMjQ2TUxPZ1lXWGdDQkFnUUlQQlFBU01LSGlwbWVRSXpGdWdwU1hCMVliQ2RNYVd1RVppOFFJd3MyRVFudm90U0VudGRUVVlXZENVckxnRUNCQWdRT0VCQW91QUFQS3NTbUpOQUpBa1cwWjl0bEM0ZlpQWXU0cGR2RHkvaTFVU0F3TWdGNG1kMUcwMWNSdmtRcGF1cEpBdk91Z291TGdFQ0JBZ1FJUEJ3QVltQ2g1dFpnOERzQkNKSlVCNWdkaDZseXlUQm03am9NTVI0ZG51UERzMWRvRW5zSFVjL3kyaWdycWFYY1J6YWRCVmNYQUlFQ0JBZ1FPQmhBaElGRC9PeU5JSFpDVFJKZ20xMHJIeXIxOVgwT2k0MlZsMEZGNWNBZ1c0RjR1ZjNNbXBZUm5uYllVMlNCUjNpQ2syQUFBRUNCQjRpNEdHR0Q5R3lMSUdaQ2ZTVUpQZytMakkyTTZQVEhRTFZDalRmL0wvc0VLQ01QbHAxR0Y5b0FnUUlFQ0JBNEI0Qkl3cnVBZkl4Z1prTGJLTi9YWTBrS0E5QWt5U1krUTZrZS9VSk5CZnhienJzZVJsWmNOcGhmS0VKRUNCQWdBQ0Jld1NNS0xnSHlNY0U1aXJROGJlQ0pVbmdvWVZ6M1huMGkwQUl4REZrRlM5ZC92bEVpVVo3R2dFQ0JBZ1FHRWhBb21BZ2VOVVNHRkpBa21CSWZYVVRtSTlBRDhtQ3Y4UUlodktnVlJNQkFnUUlFQ0RRbzRCYkQzckVWaFdCTVFqRWlYMFowdHZWL2NWR0VveGhJMnNEZ1o0RW11ZVBmTjloZFpzNFpoMTNHRjlvQWdRSUVDQkE0QVlCSXdwdVFQRVdnYmtLZFB6dG55VEJYSGNjL1NKd2owQVB4NWJqU0VyczdtbUdqd2tRSUVDQUFJRWtBWW1DSkVoaENJeGRvUGxXN3RlTzJpbEowQkdzc0FTbUl0QnhzdUI5T0pUbm5seE94VU03Q1JBZ1FJREFsQVhjZWpEbHJhZnRCUFlVYUpJRTJ6MFhmK2hpa2dRUEZiTThnUmtLZEh3YlF2bnJMSnNac3VrU0FRSUVDQkFZcFlCRXdTZzNpMFlSeUJPSUpNRlJSTnRFK1NZdjZxZElrZ1NmS013UUlOQnhzdUJGSE0vT0tCTWdRSUFBQVFMZEM3ajFvSHRqTlJBWVZDQk9yTGZSZ09jZE5FS1NvQU5VSVFuTVFTQ09PNnZvUjFkL092SDdKaUV4QnlwOUlFQ0FBQUVDb3hRd29tQ1VtMFdqQ09RSU5OKytTUkxrY0lwQ2dNQ2VBaDJQTFBnNWptMytFc0tlMjhKaUJBZ1FJRURnTVFKR0ZEeEd6VG9FSmlEUTRUZDZSaEpNWVB0cklvRXhDSFI4SEZwRVFzTEREY2V3b2JXQkFBRUNCR1luSUZFd3UwMnFRd1NlUEdtK2JkdUdSZlp6Q1NRSjdHQUVDRHhJSUk1SG0xamg1WU5XMm0vaDk1RW9NTEpnUHl0TEVTQkFnQUNCQndtNDllQkJYQlltTUg2Qk9Day9pbGFlUjhsT0VwVE9uOGFKK1VXWk1SRWdRR0FmZ1RobXJHSzVOL3NzKzhCbG5zWHg3dXlCNjFpY0FBRUNCQWdRMkVQQWlJSTlrQ3hDWUVvQ2NlSzhqZloyOFZ3Q0R4Q2IwbzZnclFSR0p1RFlOTElOb2prRUNCQWdRT0FPQVNNSzdzRHhFWUdwQ2NTSitEcmEzRVdTNEhWOEs3aVptb2YyRWlBd0tvR1RhTTM3RGxwMEZzZSs0dzdpQ2ttQUFBRUNCS29WTUtLZzJrMnY0M01UaUJQbFpmVHBsdzc2OWFZWk90eEJhQ0VKRUtoSklJNVRSOUhmaXloUGsvdGRFaERMT0ZaZEpzY1ZqZ0FCQWdRSVZDbGdSRUdWbTEybjV5YlFuSHlmZDlDdmQ1SUVIYWdLU2FCU2dlWkMvaVM2WHg2TW1qazlpMkRyeklCaUVTQkFnQUNCbWdVa0NtcmUrdm8rSjRHU0pNaCtlR0g1aHE2YzBKc0lFQ0NRSmhESmdvc0l0a29MMkFiNklaS21qbG10aHprQ0JBZ1FJUEJvQVltQ1I5TlprY0E0Qk9MRWVCMHR5WDR1UWZtMmIyVVk3emkyc1ZZUW1KdEFIRnRLY3ZQSER2cTFpV1Bpb29PNFFoSWdRSUFBZ2FvRVBLT2dxczJ0czNNVGlCUGk0K2pUcngzMDY3czRrZDkyRUZkSUFnUUlmQktJWTlnbS92UHkweHM1TStXV3FXVk9LRkVJRUNCQWdFQ2RBa1lVMUxuZDlYb0dBbkdDZlJUZEtOL0taVS9mU3hKa2s0cEhnTUJOQW5Hc1djWDc1VGFuek9sNUhCL1htUUhGSWtDQUFBRUN0UWtZVVZEYkZ0ZmYyUWpFaWZCWmRPYUg1QTY5YVU3Y2s4TUtSNEFBZ1pzRm1xVG5MajdOZnM3S24rTjRkbkZ6cmQ0bFFJQUFBUUlFN2hLUUtMaEx4MmNFUmlvUUo5WW4wYlMvSlRmdmZaeFVIeWZIRkk0QUFRTDNDc1F4YlJrTFpmOTVWOGUwZStVdFFJQUFBUUlFYmhadzY4SE5MdDRsTUZxQjV0dTNUWElEeThNTFMvTEJSSUFBZ2Q0RklrbTVqVXF6SDI3NExJNlg2OTQ3bzBJQ0JBZ1FJREFEQVNNS1pyQVJkYUV1Z1RqeFBZOGV2MGp1OVhmTmlYcHlXT0VJRUNDd3YwQkh4emUzSU95L0NTeEpnQUFCQWdSK0Z6Q2l3STVBWUVJQ2NSSmR2dlhQVGhLOGxpU1kwRTZncVFUbUxiQ0s3bjFJN3VJbU9aNXdCQWdRSUVCZzlnSkdGTXgrRSt2Z1hBUWlTWEFVZmRsRnlYemcxN3RJRWl3anBva0FBUUtqRUloajNYRTA1TmZreHBTRTZEbzVwbkFFQ0JBZ1FHQzJBa1lVekhiVDZ0Z01CYzZpVDVsSkFzOGxtT0ZPb2tzRXBpNFFGL1FYMFlmczV4VzhhaElRVStmUmZnSUVDQkFnMEl1QUVRVzlNS3VFd0dFQ2NZSzdqQWpaVHdUL3ppMEhoMjBYYXhNZzBKMUFIUGUyRWYxNVlnMUdVQ1ZpQ2tXQUFBRUM4eFl3b21EZTIxZnZaaUFRSjh2bGxvTk5jbGQra2lSSUZoV09BSUZzZ1pNSVdFWStaVTNQNDNoNm1oVk1IQUlFQ0JBZ01HY0JpWUk1YjExOW00dEFPYkY5bXRpWjhyZkZuU3duZ2dwRmdFQytRQnluTGlQcUtqbnl1a20rSm9jVmpnQUJBZ1FJekV2QXJRZnoycDU2TXpPQk9LRmRSSmYrbnR3dGZ5b3NHVlE0QWdTNkU0amo0Q2FpdjB5czRVMGtJVmFKOFlRaVFJQUFBUUt6RTVBb21OMG0xYUU1Q2NRSjhqYjZrM21QN3VzNFFWN1B5VWhmQ0JDWXQwQXpBdUFpZXBrNXN1cTdPQlp1NXkyWDE3c21hYjFvSWg3RjYvRVgwVzk2NzR0Ri92RGY3Ui9lZWZMaytuc1h6YWlTR3hiekZnRUNCQWgwTFNCUjBMV3crQVFlS1JBblpxdFk5ZWRIcm43VGF1L2lwR3Q1MHdmZUkwQ0F3SmdGNG5pNGpQYjlrdGpHY2d2V2x4ZTdpZUduRStwYUVtQVJyYjVleXNYL3N5aGptTjQxamJpSTE4c29uMTRsRThhd2ViU0JBSUU1Q2tnVXpIR3I2dFBrQmVMRXJaeWdsUk9ockcvUXlnUEJqdU9FYWhldkpnSUVDRXhPSUk2TFo5SG9IeEliL21NY0Uwdk1LcWJ3TzQ2T0xxS1UxNnY1c1NRQ29ra0hUU1dSc0d2S3RyejZmUmNLSmdJRUNCd2dJRkZ3QUo1VkNYUWxFQ2QwNjRqOUtqRitWU2ZFaVc1Q0VTQXdFb0dPRXFpTE9YNGpIVmJMMkd4WENZSHlPcGVFd0VQM3hwSkF1TGdxc2EzTHZJa0FBUUlFOWhDUUtOZ0R5U0lFK2hTSUU3eEYxUGYzeERvTnNVM0VGSW9BZ2VFRTR2aDRFclgvTGJFRlA4WEY0Mmxpdk41RE5iOHpqcVBpWlpUeStqeUs2V2FCTXJydUlzcTJLWjZERUJBbUFnUUkzQ1FnVVhDVGl2Y0lEQ2dRSjMzblVmMkx4Q2I4MmJjb2lacENFU0F3cUVBSHg4aHY0eGk1RzdSVEQ2ZzgrbjhVaTU5RVdUWWw2eGExQ0ZmbDlENTZ2UzBsOW9QeSs5ZEVnQUFCQWlFZ1VXQTNJREFpZ1RnQlhFWnpma2xzMHVzNDhWa254aE9LQUFFQ2d3bzBGOHE3YU1RM1NRMTVHOGZKY3VFOTJxbjUzWENWSEtqMU5vSyt0ays1WGFFa0RFcmk0S0t2U3RWRGdBQ0JzUWxJRkl4dGkyaFAxUUp4TXJnTmdLeGhveDhpVm5tQTRXWFZxRHBQZ01Ec0JPSlllUnFkK210aXg3NkxZK1UyTWQ1Qm9acGt5RWtFS1dVWkpTc3BFcUZNRHhBb3YwZTNVYzVqL3poL3dIb1dKVUNBd09RRkpBb212d2wxWUM0Q2NXSzRpcjc4bk5pZlVaMzRKdlpMS0FJRUNEeUpZK1pGTUdSOXUvNHVMZ1NYUTdKR2Z4WlIvMVZ5SUN0aFBHU1g1bFozZWI1QlNSWnN5NnNrZkNpWUNCQ1l0WUJFd2F3M3I4NU5TU0JPRW5mUjNxZEpiUjc5VU5xa2ZncERnRUNsQW5ITVhFYlhmMG5zL2wvNi90WTQrbkFVN1Y4MUpTdnBrVWdpMUIwQ2IrSXpJdzN1QVBJUkFRTFRGcEFvbVBiMjAvcVpDTVRKNGlxNmtqV2FvSHpyVVc0NTJNV3JpUUFCQXJNVmlHUG5KanIzTXFtREgrSzR1VWlLZFd1WUpqbHdOWExneGEwTCttQXFBbGNqRFRheC8yeW4wbWp0SkVDQXdIMENFZ1gzQ2ZtY1FNY0N6VW5qUlZTVE5acmdkWnlzckR0dXR2QUVDQkFZWEtBNWZ1NmlJVm4zOEg4Zng4OU5GeDJMdGg1SDNOTW9KVW1RMWQ0dW1pcm00d1hLTXcwMnBjUit0SXRYRXdFQ0JDWXJJRkV3MlUybjRYTVJpSlBIZGZUbFZWSi9Qc1RKeVNJcGxqQUVDQkFZdmNDWWo2Rk5JbU1WaUNWQmtKVU1IdjAyMGNEZkJkN0d2eVZoY002REFBRUNVeFNRS0pqaVZ0UG0yUWcwSjVHNzZGRFd0MHU5MzJNN200MmhJd1FJVEZZZ2pxVzdhSHpXaGZqQm93cWlQY2ZSbnBJY09JbVNkWHlQVUtZSkNwUlJCbWRSU3RMZ2NvTHQxMlFDQkNvVitGT2wvZFp0QW1NUktDZVNXU2VSNzN4ek1aYk5xaDBFQ1BRc1VJNmxXZFA2c1lFaVFiQ0tzbzMxZjQzeU1rclc4VDFDbVNZcVVCSllmNDN5SDJMZjJFUlp4THlKQUFFQ294Y3dvbUQwbTBnRDV5b1FKd3RIMGJkZGxLd1R5ZThpVWJDTmVDWUNCQWhVSjlCY29EOVA2dmplb3dxYVkvbEoxTHVPa2pXcUlha2J3b3hVNEYyMGErMTM5a2kzam1ZUklQQzdnQkVGZGdRQ3d3bGtqaVo0NDRSanVBMnBaZ0lFUmlHd1RtekZ2YkZLZ2lCS1dXNFg1ZWNva2dTQllOcExvQ1MwZmluSnJTaXJ2ZGF3RUFFQ0JIb1dNS0tnWjNEVkViZ1NpSk9EWGN4bm5WaCtHNG1DRXM5RWdBQ0JhZ1hLaFZkMHZseUVaVXczamlxSU9zcG9zSkxvelV6MlpyUzN5eGpsUHZ0ZFUwRjV2Wm92YjVYNVVoNHpIY2RLeGZOcXV2Ny9NcDgxNHU0cS9saGZpMjhaWWJBWmF3TzFpd0NCK2dRa0N1cmI1bm84QW9IbUc0U2ZrNXJ5Sms0dVZrbXhoQ0ZBZ01Ca0JlTFl1b2pHL3oycEErL2oyRm91Vm4rZlpwNGd1RW9FWEVSbkw2TnNmKy8wa3ljWFlWRCtQOWpVdUpmdGNCVGwrdXNpL3ArVmJJOVFvNWdrREVheEdUU0NBSUVpSUZGZ1B5QXdnRUNjK095aTJxd1RuRy9qUks3RU14RWdRS0I2Z1RpK2JnTGhaUkxFZHhIbklzcHBVNmIrRGZkVlFtRGI5R3NYdno5Sy95WTd4ZlplUnVNWFRTbnpKWmt3aCsxMEd0dm1QUHBpSWtDQXdDQUNFZ1dEc0t1MFpvRTRxVmxGLzM5T01uZ2RKeExycEZqQ0VDQkFZUElDY1l4ZFJDZitudFNSY21GOUZHV0tGNTRmbzkzYktDVVI4UHRyL0w2NGpQblpUODArY0J3ZExXVVo1WG1VS1U3dm90RWVlampGTGFmTkJHWWdJRkV3ZzQyb0M5TVNpQk9ZYmJRNDQ2U2xuQVF1YWpueG05WlcxbG9DQklZVWlPUHNKdXAvT1dRYkJxaTdKRFcyVFNtM0RKUUVnYWtSaUgzaUttbXdqTGRLbVZMeXB5UU1WckZOZC9GcUlrQ0FRQzhDRWdXOU1LdUV3RDhMeEluS011WitTZkl3bWlBSlVoZ0NCT1lsRU1mYVJmVG83L1BxMVI5NmN6VmlZQnVmbkx1SS9JUFBuVzljU3h5Y3hJSVp5ZnM3NjB2NjhLZUlVMFlZWENiRkU0WUFBUUszQ2tnVTNFcmpBd0w1QW5GaWNoNVJYeVJFTnBvZ0FWRUlBZ1RtS3hESDIwMzBibTZqQ3Nxb2dmSjdwQ1FHdHZGcVNoQ0lmZVVvd2l5am5EUmx6S01OeXUvL2tpdzRpMWNUQVFJRU9oT1FLT2lNVm1BQ253dkVpY2dpM3NuNmh1dW5PRWs0L2J3Ry95TkFnQUNCSzRIa1krNVYyQ0ZlMzBlbG15aEdEZlNrSC92T2NWUzFpbElTQjArampIRXErOFdwaE5FWU40MDJFWmlIZ0VUQlBMYWpYa3hBSUU0OFN2Yi9oNlNtZmhzbkI3dWtXTUlRSUVCZ2xnSngzTjFFeDZZNHFrQnlZQ1I3NUFTU0JtK0NxaVFNTGtkQ3Boa0VDTXhFUUtKZ0podFNOOFl0RUNjYVI5SENYWlNNNFl4djRvUmdGYkZNQkFnUUlIQ0hRQng3bC9IeEwzY3NNcWFQcm00cjJNUXgvbUpNRGRPV2Z4YUkvZWtrNXE1S3h1L3pMTnB5TzBKSkZteXlBb3BEZ0FBQmlRTDdBSUVlQk9Ma1loWFYvSnhVbGRFRVNaRENFQ0F3ZjRFNC9tNmpsODlIM05QeWpYQzVyZUI4eEczVXRHc0NzVThkeFg5THd1QTB5ck5ySHcwOSt5NGE0SzhqREwwVjFFOWdKZ0lTQlRQWmtMb3hib0U0cWJpSUZtYWNUTHlOazhseWNtSWlRSUFBZ1QwRTR2aGJqcGwvMjJQUlBoY3Bvd2ZPb3BUUkE1ZDlWcXl1WElIWXY0NGo0bW1Va3loakdHVlFSaGQ0MkdFZ21BZ1FPRXhBb3VBd1Ayc1R1RmVnT1luNDlkNEY5MXZndXppcDNPNjNxS1VJRUNCQW9BakVjWGdYTDAvTC9NQlQrY2Izek9pQmdiZENCOVhIUG5ZVVlWZFJTdEpnTFB1YTBRV3hNVXdFQ0R4TzRFK1BXODFhQkFnOFFLQ2NOR1JNN3lVSk1oakZJRUNnUW9IMXdIMHV0eGVVMjhhV2tnUURiNG1PcW8vdGVobWxKSUVXVWNWZm9wU2swSkJUdWQzbUloSVlxeUVib1c0Q0JLWXJZRVRCZExlZGxrOUFvUG1HWVJkTnpSaU8rSDJjZ0d3bTBHMU5KRUNBd0tnRWtvL0YrL2F0REFFL0s2VmNSTzY3a3VYbUl4RDczVEo2czRyeU1zcVEwOXVvdkl3dXNCOE91UlhVVFdCaUFrWVVUR3lEYWU3a0JFNml4UmxKZ28rU0JKUGI5aHBNZ01CSUJKb0xwRTFQelNrSmd0ZFJGbEh2MnNWWlQrb2pyQ2EyL1RiS0twcjJiWlF5cW1TbzZVVlV2R3NTRjBPMVFiMEVDRXhNUUtKZ1lodE1jeWNuc0VwcWNmbFd5a1NBQUFFQ2p4Zm8ramdxUWZENGJUUHJOU05ac0J0QndxQjhhZkZMSkF2V3M4YldPUUlFMGdUY2VwQkdLUkNCendYaWwvRWkzdm43NSs4KytuL2wzdGJkbzllMklnRUNCQWlVaHhwdWc2SGN1NTA1dWNVZ1U3T0NXTTM1d1RxNk90UXRDZStpN3BNNHIzQXJRZ1g3bXk0U2VLeUFFUVdQbGJNZWdmc0Z5bTBIR1ZQNWs0aTdqRUJpRUNCQW9IS0J6RkVGUmhCVXZqTTl0dnZsZDNxVVZhei9YWlJ5MGQ3M1ZKSmxia1hvVzExOUJDWW1ZRVRCeERhWTVrNUhJTDR4MkVWcm55YTArQzl4UW5HZUVFY0lBZ1FJVkMrUWRHeCtFNURsK1FPNzZrRUJIQ3dRKytReWdteWlaSnd6UkpnSFRhOWpQMTQvYUEwTEV5QlFoWUFSQlZWc1pwM3NXeUIrNlI5SG5SbS84RDlJRXZTOTlkUkhnTURNQlRZSDlLOTgrL3ZuT0M2dkpBa09VTFRxWndLeEwyMmpMT0xOSDZPVWtTcDlUcS9pbk9VOHlsR2ZsYXFMQUlIeEMwZ1VqSDhiYWVFMEJWWkp6VGFTSUFsU0dBSUVDRFFDbTBkSWZJaDF5dWl1WlpTTFI2eHZGUUwzQ3NTK2RSWUxMYUw4ZE8vQ3VRdVV2NHF3YmI3a3lJMHNHZ0VDa3hWdzY4RmtONTJHajFrZ2Z0bnVvbjBaSXdxK2pST0hFc3RFZ0FBQkFra0M1UnZVQ0ZVdWp2YVpYc2RDWjNFc3Z0eG5ZY3NReUJCb0x0cEw0dUI1UnJ3OVk1VFJET1VoaDlzOWw3Y1lBUUl6RmpDaVlNWWJWOWVHRVdoK3VXY2tDZDVMRWd5ekRkVktnTURzQlRaNzlMRGNabENTdGVWWkJKSUVlNEJaSkU4ZzlybUxLTXVJMk9mdENGZC9RbkdWMXhPUkNCQ1lxb0JFd1ZTM25IYVBXV0NWMUxqeVRZS0pBQUVDQkpJRjRnTHNQRUtXMndsdW1zcTNxdCtYaTdRb3U1c1c4QjZCdmdSaUh5em5Bb3NvYi91cU0rcjVPYjcwY0E3U0k3aXFDSXhSUUtKZ2pGdEZtNll1Y0pMVWdYSWlheUpBZ0FDQmJnUTJONFQ5S2Q1YnhNWFpUWi9kc0xpM0NIUXZFUHZqWlpSeWJ2R1hLQ1dSMWNmMFF5UUxObEdPK3FoTUhRUUlqRS9BTXdyR3QwMjBhTUlDelcwSHZ5WjA0VzF6VXBBUVNnZ0NCQWdRK0ZJZ2p0ZUxlTy92emZ2djQzVVZ4OTJMNXY5ZUNJeFNvTGx3MzBUajluM0d4cUg5S0Q4YlpYVE41YUdCckUrQXdMUUVqQ2lZMXZiUzJ2RUxySkthZUo0VVJ4Z0NCQWdRdUVFZ0xueDI4ZmFiS0QvRy9MRWt3UTFJM2hxZFFMbGdqM0lTRGV0cmRNR3pxS3Y4UllTajBXRm9FQUVDblFvWVVkQXByK0MxQ2NRdjBvdm9jL21sZXVqMGI4ckp3S0ZCckUrQUFBRUNCQWpNVTZBWkZiT0ozdlh4bHhIS0xROWxaRUU1enpFUklGQ0JnQkVGRld4a1hleEhvUG1GblpFa0tMY2RTQkwwczluVVFvQUFBUUlFSmlrUTV3cTdLTXRvL09zZU92Qk4xRkZHRmh6M1VKY3FDQkFZZ1lCRXdRZzJnaWJNUnVBa3FTZm5TWEdFSVVDQUFBRUNCR1l1RU1tQ2RYVHh6MUUrZE54VnlZS09nWVVuTUNZQmlZSXhiUTF0bWJyQU1xa0RFZ1ZKa01JUUlFQ0FBSUVhQkNKWmNCSDlQSTd5dHVQK1NoWjBEQ3c4Z2JFSVNCU01aVXRveHh3RVhpUjB3bTBIQ1loQ0VDQkFnQUNCMmdRaVdYRDFvTU91YjBXNFNoYWMxR2FzdndScUVwQW9xR2xyNjJ0bkFuSFBYdFl2eS9QT0dpa3dBUUlFQ0JBZ01IdUI1bGFFNzZLajVRR0VYVTBsV2ZDM09QOVpkVldCdUFRSURDc2dVVENzdjlybkk3Qk02c28yS1k0d0JBZ1FJRUNBUUtVQ2tTellSdGZMclFqdk95YjQyUU1PT3hZV25zQkFBaElGQThHcmRuWUN5NFFldlk5ZjdMdUVPRUlRSUVDQUFBRUNsUXMwNXhUTFlPajZ1UVgrR2tMbCs1cnV6MU5Bb21DZTIxV3ZlaFNJVFBwUlZQY3NvY3B0UWd3aENCQWdRSUFBQVFLL0MwU3k0T3E1QlQ5MVNITDF6SUl5Z3NGRWdNQk1CQ1FLWnJJaGRXTlFnV1ZTN1o1UGtBUXBEQUVDQkFnUUlOQUtSTUxnTlA3M2ZmdE8rcHhrUVRxcGdBU0dGWkFvR05aZjdmTVFXQ1owNDJQOEV0OG14QkdDQUFFQ0JBZ1FJUEFIZ1RqUDJNU2JYVDdrVUxMZ0QrcmVJREJkQVltQzZXNDdMUitQd0RLaEtkdUVHRUlRSUVDQUFBRUNCRzRWYUw2VVdNWUNYZjFGaEpJczJEUzNaZDdhRGg4UUlEQitBWW1DOFc4akxSeXhnT2NUakhqamFCb0JBZ1FJRUNEd0I0RklGbHpFbThzb1hmMUZoR2NSdXp6ZzhDaGVUUVFJVEZSQW9tQ2lHMDZ6UnlPd1RHckpOaW1PTUFRSUVDQkFnQUNCT3dWNlNoWjQ5dEtkVzhHSEJNWXRJRkV3N3UyamRlTVhPRTVvWW5rK1FjbnVtd2dRSUVDQUFBRUN2UWpFdWNkbFZMU00wdFhJZ3VjeHFtQVQ4VTBFQ0V4UVFLSmdnaHROazBjbHNFeG96VFloaGhBRUNCQWdRSUFBZ1FjSjlKQXNlQm5KZ3RNSE5jckNCQWlNUWtDaVlCU2JRU01tTFBBOG9lM2JoQmhDRUNCQWdBQUJBZ1FlTE5CRHN1Q3ZrU3hZUGJoaFZpQkFZRkFCaVlKQitWVStaWUg0cFpkeDIwRWgyRTdaUWRzSkVDQkFnQUNCYVF2MGtDdzRTenh2bWphMjFoT1lpSUJFd1VRMmxHYU9VaUFsVVJDL25DOUcyVHVOSWtDQUFBRUNCS29SNkRoWlVQNXNvcitFVU0zZXBLTnpFSkFvbU1OVzFJZWhCRElTQmUrR2FyeDZDUkFnUUlBQUFRTFhCZnBJRmx5dnp6d0JBdU1Wa0NnWTc3YlJzdkVMWkNRS3R1UHZwaFlTSUVDQUFBRUN0UWgwbkN4NEZyY2diR3F4MUU4Q1V4YVFLSmp5MXRQMm9RVXlIbVRvdG9PaHQ2TDZDUkFnUUlBQWdjOEVPazRXbEwrRXNQcXNRdjhoUUdCMEFoSUZvOXNrR2pRRmdjUUg4a2dVVEdHRGF5TUJBZ1FJRUtoTTRGcXk0R01IWGZkd3d3NVFoU1NRS1NCUmtLa3BWazBDaTRUT2ZveGZ3cnVFT0VJUUlFQ0FBQUVDQk5JRk9rd1dsSWNiYnVLTGw2UDBSZ3RJZ0VDS2dFUkJDcU1nRlFwa1BKL0FhSUlLZHh4ZEprQ0FBQUVDVXhLSVpFRTVYMWxHeVI1WjhDeGlua1V4RVNBd1FnR0pnaEZ1RkUyYWhNQXlvWlhiaEJoQ0VDQkFnQUFCQWdRNkZXaVNCYWNkVk9KNUJSMmdDa2tnUTBDaUlFTlJqQm9GamhJNlhUTDBKZ0lFQ0JBZ1FJREE2QVVpV2JDSlJ2N1lRVU05cjZBRFZDRUpIQ3J3VmZ6UUh4ckQrZ1NxRTRoNzZqSitjUDdjWk9pcjg5UGhod3ZFUHJlT3RWNDlmRTFyRUNCQTRNRUM3K0wzMC9MQmExbWhDb0g0ZmJTSmpyNU03dXo3Mk9lT2syTUtSNERBQVFKR0ZCeUFaOVU2QmVJWFpNb3ZNa21DT3ZjZnZTWkFnQUFCQWxNV2lQT1hWYlQvZlhJZm5qVUo4ZVN3d2hFZzhGZ0JpWUxIeWxtdlpvR00ydzZ5ZjhIV3ZEMzBuUUFCQWdRSUVPaFhZQm5WZlVpdThsVWtDMHBjRXdFQ0l4Q1FLQmpCUnRDRXlRa3NFMXE4UzRnaEJBRUNCQWdRK0YydFhnQUFRQUJKUkVGVUlFQ2dkNEVZVlhBWmxaNUV5ZjVMQ1A1a1l1OWJVNFVFYmhhUUtMalp4YnNFN2hMSUdGRndjVmNGUGlOQWdBQUJBZ1FJakZtZ3VZWHlOTG1OVHlQZU9qbW1jQVFJUEVKQW91QVJhRmFwWHVBNFFXQ1hFRU1JQWdRSUVDQkFnTUJnQXBFczJFVGxiNUliOElOYkVKSkZoU1B3Q0FHSmdrZWdXYVY2Z1VXQ3dDNGhoaEFFQ0JBZ1FJQUFnYUVGeXFpQzdHY3Z1UVZoNksycS91b0ZKQXFxM3dVQVBFS2dESXM3ZEhMcndhR0MxaWRBZ0FBQkFnUUdGK2pvZVFWdVFSaDh5MnBBN1FJU0JiWHZBZnIvSUlFWUNuZjBvQlZ1V2JqNXBYckxwOTRtUUlBQUFRSUVDRXhISU01cmR0SGFNcklnY3lxM0lCeG5CaFNMQUlIOUJTUUs5cmV5SklFaWtQRUxLM3Q0bmkxRGdBQUJBZ1FJRUJoVW9LUG5GV3dHN1pUS0NWUXNJRkZROGNiWDljRUVMZ2VyV2NVRUNCQWdRSUFBZ2U0RXlxaUNENG5objhXb2doTFRSSUJBendJU0JUMkRxMjd5QXN1RUhsd2t4QkNDQUFFQ0JBZ1FJREFxZ1d2UEs4aHMxenJyMXMvTVJvbEZZTzRDRWdWejM4TDZOMFlCSXdyR3VGVzBpUUFCQWdRSUVEaFlJSklGNVF1UjF3Y0hhZ044RTdObjdYL05FU0RRaDRCRVFSL0s2cGlUd0NLaE14SUZDWWhDRUNCQWdBQUJBdU1VaUdUQk9scVcrVXltbHpHcVlEbk8zbW9WZ1hrS1NCVE1jN3ZxVlhjQ2k0VFFKZE51SWtDQUFBRUNCQWpNV1dDVjNMbDFjanpoQ0JDNFEwQ2k0QTRjSHhFZ1FJQUFBUUlFQ0JBZzhIQ0JEbTVCZUI2akNsWVBiNGsxQ0JCNGpNRFhqMW5KT2dRcUZqaEs2UHN1SVlZUUJCNHE4RjJjdEcwZnVwTGxDUkNZbmtBelJQdVg2YlZjaStjbVVHNUJhQzd1bnliMXJjUTdqN2h1NDB3Q0ZZYkFiUUpHRk53bTQzMENOd3M4dS9udC9kK05YMjY3L1plMkpBRUNCQWdRSUVCZzBnS3J4TmFYaE1OcFlqeWhDQkM0UlVDaTRCWVlieE1nUUlBQUFRSUVDQkFnY0poQU01cnRwOE9pZkxiMmFZd3F5QmpoK1ZsUS95RkE0SE1CaVlMUFBmeVBBQUVDQkFnUUlFQ0FBSUZjZ1hXRSs1Z1Vzdnk1UktNS2tqQ0ZJWENiZ0VUQmJUTGVKL0NGUUdTdkYxKzg5Wmovdm52TVN0WWhRSUFBQVFJRUNFeFZvSG1tUU9iRi9hdWs4N0twa21vM2djNEZKQW82SjFiQmpBUVdNK3FMcmhBZ1FJQUFBUUlFZWhPSVpNRW1Lc3Y4d21UZFcrTlZSS0JDQVltQ0NqZTZMaE1nUUlBQUFRSUVDQkFZUUdDZFdPZExvd29TTllVaThJV0FSTUVYSVA1TGdBQUJBZ1FJRUNCQWdFQytRUE5nd3plSmtkZUpzWVFpUU9DYWdFVEJOUXl6QkhvUXVPeWhEbFVRSUVDQUFBRUNCTVlxc0k2R1pUM1kwS2lDc1c1bDdacTh3TmVUNzRFT0VKaVd3TVcwbXF1MXRRbDhkZmEvTHFMUHBaZ0lFQmlmd09WdnAvL285OGo0dG9zV1BVQWdSaFhzNHBhQnMxamwxUU5XdTJ2UmRYeTR1bXNCbnhFZzhIQUJpWUtIbTFtREFBRUNjeFpZUmVleVR0N203S1J2QklZUUtBK0NXdzVSc1RvSkpBdVVSTUZwbFBLbkRnK2R5cWlDMCtZdkt4d2F5L29FQ0RRQ2JqMndLeERZWDJDNS82S1dKRUNBQUFFQ0JBZ1F1RW1ndWFoZjMvVFpJOThyU1FjVEFRS0pBaElGaVpoQ0VTQkFnQUFCQWdRSUVDQnd2MEFrQzhxb2dnLzNMN25YRXFjeHF1Qm9yeVV0UklEQVhnSVNCWHN4V1lnQUFRSUVDQkFnUUlBQWdXU0JkVks4Y2d2REtpbVdNQVFJaElCRWdkMkFBQUVDQkFnUUlFQ0FBSUhlQldKVXdTWXFUUnRWMEhzSFZFaGd4Z0lTQlRQZXVMcEdnQUFCQWdRSUVDQkFZT1FDNjZUMlBZM2JEMDZTWWdsRG9Ib0JpWUxxZHdFQUJBZ1FJRUNBQUFFQ0JJWVJNS3BnR0hlMUVyaFBRS0xnUGlHZkV5QkFnQUFCQWdRSUVDRFFwY0E2S2ZqekdGV3dTSW9sRElHcUJTUUtxdDc4T2srQUFBRUNCQWdRSUVCZ2NJSHphTUhIcEZhc2srSUlRNkJxQVltQ3FqZS96aE1nUUlBQUFRSUVDQkFZVmlCdVA3aU1GcHdsdGVMRW4wcE1raFNtYWdHSmdxbzN2ODQvVUdEM3dPVXRUb0FBQVFJRUNCQWdzSjlBU1JSa2pDb29meXJ4Wkw4cUxVV0F3RzBDRWdXM3lYaWZ3QjhGZG45OHl6c0VDQkFnUUlBQUFRS0hDalNqQ3M0UGpkT3NmNW9VUnhnQzFRcElGRlM3NlhWOElJR2pnZXBWTFFFQ0JBZ1FJRUJnN0FMcnBBWSs4MURESkVsaHFoV1FLS2gyMCt2NFFBTEhBOVdyV2dJRUNCQWdRSURBcUFWaVZNRXVHdmd1cVpGR0ZTUkJDbE9uZ0VSQm5kdGRyd2tRSUVDQUFBRUNCQWlNVWVBc3FWRW5TWEdFSVZDbGdFUkJsWnRkcHdrUUlFQ0FBQUVDQkFpTVR5QkdGWnhIcXo0a3RPeHAzSDRnV1pBQUtVU2RBaElGZFc1M3ZYNmN3T1hqVnJNV0FRSUVDQkFnUUlEQUF3UTJEMWoycmtVbEN1N1M4Um1CT3dRa0N1N0E4UkdCNndLUjRiNjQvdjlIemk4ZXVaN1ZDQkFnUUlBQUFRSzFDR3lTT2lwUmtBUXBUSDBDRWdYMWJYTTlIbGJnNmJEVnE1MEFBUUlFQ0JBZ01HNkI1cUdHYnhOYStZM2JEeElVaGFoU1FLS2d5czJ1MHdRSUVDQkFnQUFCQWdSR0xYQ2UxTHBWVWh4aENGUWxJRkZRMWViVzJRU0JqNGZHaU16MjBhRXhyRStBQUFFQ0JBZ1FtTE5BakNyWVJQOE9QdStLR01zb0pnSUVIaWdnVWZCQU1JdFhMNUR4bklMajZoVUJFQ0JBZ0FBQkFnVHVGOGdZVmVEMmcvdWRMVUhnRHdJU0JYOGc4UVlCQWdRSUVDQkFnQUFCQWlNUTJDUzE0U1FwampBRXFoR1FLS2htVSt0b2tzQmxRcHhGUWd3aENCQWdRSUFBQVFLekZvamJEN2JSd1E4Sm5aUW9TRUFVb2k0QmlZSzZ0cmZlSGk1d2NYaUlKNHVFR0VJUUlFQ0FBQUVDQkdvUU9FL29aTG45WUprUVJ3Z0MxUWhJRkZTenFYV1VBQUVDQkFnUUlFQ0F3T1FFTmtrdE5xb2dDVktZT2dRa0N1cll6bnFaSjVBeG9tQ1oxeHlSQ0JBZ1FJQUFBUUx6RllqYkQ4cTVWOGJ0Qjh2NUt1a1pnWHdCaVlKOFV4SG5MWEE1Nys3cEhRRUNCQWdRSUVCZ2RBTGJoQlk5aTlzUEZnbHhoQ0JRaFlCRVFSV2JXU2NUQlRJU0JjOFQyeU1VQVFJRUNCQWdRR0R1QXVkSkhWd214UkdHd093RkpBcG12NGwxTUZPZ0dmNldHVklzQWdRSUVDQkFnQUNCT3dUaS9Lc2tDajdlc2NpK0h5MzNYZEJ5QkdvWGtDaW9mUS9RLzhjSUhQeUx5cE4zSDhOdUhRSUVDQkFnUUtCaWdXMUMzNWNKTVlRZ1VJV0FSRUVWbTFrbmt3VXVFdUlkSmNRUWdnQUJBZ1FJRUNCUWkwREc3UWRQNDh1YTQxckE5SlBBSVFKZkg3S3lkUWxVS25DWjBPL3lTeXJqRjE1Q1U0UWcwQXI4NHovOGIvLzUxMS85eC9ZTmN3UUlqRWJnUC83MnAvLzB5Wk4vSEUxN05JUkF6d0xicFBxV0VlY2lLWll3QkdZcklGRXcyMDJyWXgwS2xGOHVMdzZNdnpod2Zhc1Q2RVRndi92Nnc3OCsrdFAvMFVsc1FRa1FPRXpnLy9ydFgvNW5oMFd3Tm9IcENzUnpDbll4R3FEOG1jU25CL2FpZkZsaklrRGdIZ0czSHR3RDVHTUNOd2pzYm5qdm9XOHRIcnFDNVFrUUlFQ0FBQUVDbFF0a2pNWmNWbTZvK3dUMkVwQW8ySXZKUWdRK0U5aDk5ci9IL2NlZlNIeWNtN1VJRUNCQWdBQ0JlZ1cyQ1Ywdnp5bFlKTVFSZ3NDc0JTUUtacjE1ZGE0amdaVDcydnlTNm1qckNFdUFBQUVDQkFqTVZXQ2IxREczSHlSQkNqTmZBYzhvbU8rMjFiTURCZUpDZmhraGpxS1VYeVpYcnpIN0pHczB3Q0ppN2FLWUNCQWdRSUFBQVFJRTdoR0k1eFJjeHZuWisxanMyVDJMM3ZmeE1oWTR2MjhobnhPb1dVQ2lvT2F0cisrL0M4UXZuSklJS0dVUlpkbThIdnFnbkFoejc3U01KYmIzTG1VQkFnUUlFQ0JBZ0FDQks0R0xtRGswVVZETyswd0VDTndoSUZGd0I0NlA1aWZRRFBjdnZ4eVdVY3ByMXVpQUNQWGdhZkhnTmF4QWdBQUJBZ1FJRUtoYllCdmRmM2tnd1pEbmZ3YzIzZW9FK2hHUUtPakhXUzBEQ1VSaTRDaXFQb215YkVvZkl3V2lxcjJta3Fnd0VTQkFnQUFCQWdRSTdDOXdzZitpdHk5WlJwVEdyUXdwc1c2dnhTY0VwaXNnVVREZGJhZmx0d2cwdHhLVTVFQXBodzVOdTZXV2xMZkgzTGFVRGdwQ2dBQUJBZ1FJRU1nVUtCZjNjYTczTVdKK2MyRGNSYXd2VVhBZ290WG5LK0N2SHN4MzIxYlZzL2lGY1JKbEUrVXlPdjVybEZkUlJuOGhIdTFkUmp0TkJBZ1FJRUNBQUFFQyt3dGtYT0FmNzErZEpRblVKMkJFUVgzYmZEWTlMc21CNk14Vk9UU3JQSlJMK1NXMUhhcHk5UklnUUlBQUFRSUVKaWl3alRZZitweUI1UVQ3cmNrRWVoT1FLT2lOV2tVWkFwRWNXRVNjMHlnbFFUQ201dzFFY3g0MWxVU0JpUUFCQWdRSUVDQkFZSCtCaS8wWHZYWEp4YTJmK0lBQWdTY1NCWGFDU1FoRWdtQVZEUzNsME94eGhCalZ0QnhWYXpTR0FBRUNCQWdRSURCK2dWMUNFK2Z3aFZNQ2d4QUViaGJ3aklLYlhidzdBb0V5ZWlES1daVExhTTdQVWVhV0pDaktUNk4vUjJYR1JJQUFBUUlFQ0JBZ2NMOUExbDhyaUhPdzVmMjFXWUpBblFJU0JYVnU5MUgzdWh5MG81eEhJLzhlNVljb1UzMyt3TDdPeC9zdWFEa0NCQWdRSUVDQUFJSGZCZDRsT0N3U1lnaEJZSllDRWdXejNLelQ3RlFrQjhwZkx0aEc2MytKOG1LYXZYaFVxNWVQV3N0S0JBZ1FJRUNBQUlGNkJYWUpYVjhreEJDQ3dDd0ZQS05nbHB0MVdwMks1TUFxV3J5TzhqUktqWk1SQlRWdWRYMG1RSUFBQVFJRURoSFlIYkp5czY1enNBUkVJZVlwSUZFd3orMDZpVjVKRUh6YVRINUpmYUl3UTRBQUFRSUVDQkRZUytCaXI2WHVYdWpvN285OVNxQmVBYmNlMUx2dEIrdDVKQWpLTXdpMjBZQ2ZvOVE2aXVDNnZ3Y2FYdGN3VDRBQUFRSUVDQkM0WCtEeS9rWHVYY0tYTmZjU1dhQldBWW1DV3JmOEFQMk81TUJ4a3lBb3p5QjRQa0FUeGx6bGNzeU4wellDQkFnUUlFQ0F3SmdFNGk4ZmJCUGFNL2NIWmljUUNWR3JnRnNQYXQzeVBmWTdrZ05sV05kWmxKYzlWdHRIVlIramtvdHJGVzJ2elg4NVc1YTcvUExOYS8vZlhaczNTNEFBQVFJRUNCQWdjTDlBT1JjNzZHSy9mSkdWOWVjVzcyK3VKUWhNUjBDaVlEcmJhcEl0allQdmFUUjhIZVdnZy9pQW5TOS9lbWZYbEt1TC9ZdjRoWExYUmYrQXpWVTFBUUlFQ0JBZ1FLQWFnWEp1ZHVnbzFhTnF0SFNVd0FNRUpBb2VnR1hSL1FWS2RqYVcza1I1dHY5YWd5NTVOVHBnRzYwb3YzUktNbUFYcnlZQ0JBZ1FJRUNBQUlINUNpem0yelU5SS9CNEFZbUN4OXRaOHdhQjVqYURkWHowd3cwZmorbXREOUdZYlZOS1VxQWtCMHdFQ0JBZ1FJQUFBUUxURWRoR1V3OGRVYkNZVG5lMWxFQi9BaElGL1ZuUHZxWklFaXlqazVzb1Q2T01jWG9iamRwR09UZGFZSXliUjVzSUVDQkFnQUFCQWdRSUVCaURnRVRCR0xiQ3hOc3c0bEVFNVhhQzgxSWlNVkJlVFFRSUVDQkFnQUFCQXZNUnlCZ1JlandmRGowaGtDY2dVWkJuV1dXa0VZNGlrQnlvY2svVWFRSUVDQkFnUUtCQ2djdUVQaDhseEJDQ3dPd0VKQXBtdDBuNzYxQWtDZFpSMjZ2K2FyeXpwdkxYQ1RZeGNtQno1MUkrSkVDQUFBRUNCQWdRSU5BS0hEVmZmTFh2L1BORHJUT1NFTmRqbWljd0tRR0pna2x0cm5FME5nNm1pMmpKSnNxaEQ0K0pFQWROWmZUQVdaU1NJTmdkRk1uS0JBZ1FJRUNBQUFFQ1V4TzRTR2h3K1F0ZHYzd1pKODUzcjcvMVB2NVRFZ2VsWE5XNWpma25jUTc2KzJ1Wk54R1lrNEJFd1p5MlpnOTlpWVBtU1ZTemlmSk5EOVhkVmtVNVdKOFpQWEFiai9jSkVDQkFnQUFCQXZNWGlIUEJ5eTh1Nkx2cTlQVS85LzJpcWVUM1ViVk4vZVd2YWUyaWxDUkNLVHNKaEZBd1RWcEFvbURTbTYvZnhzZUJjQjAxRG5tclFibTlZTzNBMis5MlZ4c0JBZ1FJRUNCQWdNQ2RBay9qMDFLZVh5M1ZKQkRLbDF2YktDVjVzSTF6MkYyOG1naE1Ra0NpWUJLYmFkaEd4b0h1S0Zxd2lYS1ZRZTI3UVcraXdwSWcyUFZkc2ZvSUVDQkFnQUFCQWdRSVBGS2dqRVQ0TkJvaHpxbkx5SVB0VlhGdUd4S20wUXBJRkl4MjA0eWpZWEZBTzQ2V2JLSjhPc2oxMkRJSmdoNnhWVVdnQ1B6My8vQy8vNWYvemRmL0hnWUJBaU1VK1BoUC84Vy9IbUd6TkluQTBBTGxXL3NoemxNZjArOHk2dUJsVTU3RWVmYlZpSU5OSkEzS3FBTVRnZEVJU0JTTVpsT01yeUZ4OEZwR3E4NmpmTk56NjhvdEJxY09tRDJycTQ1QUNQd25ULzdwcS8vcVQ1Y3NDQkFZb2NELzg5cy8vR21FemRJa0FrTUxUUG1YVmtsd2xQTER0ZEVHNTNFT1hNNi9UUVFHRmZBTFoxRCs4VlllQjZ0VnRPNlhLSDBtQ1VwVzliczRPQzRsQ1VMQ1JJQUFBUUlFQ0JBZ1VJdkExV2lEdjhWNStDN0tXWlRqV2pxdm4rTVRrQ2dZM3pZWnZFWGx3QlNOK0xuSGhueU11cjZQNU1CeGxHMlA5YXFLQUFFQ0JBZ1FJRUNBd05nRVN0TGdoeWkveG5uNVJaVFRLRWRqYTZUMnpGdEFvbURlMi9mQnZZdUQwQ1pXS2dlbXZxYWZvcUpGSkFnMmZWV29IZ0lFQ0JBZ1FJQUFBUUlURVNpM0p2dzF5bjhvNStsUmxoTnB0MlpPWEVDaVlPSWJNS3Y1SlVzWnBkd1A5VElyNWoxeHJtNHpLTThpdUx4bldSOFRJRUNBQUFFQ0JBZ1FxRjJnbktmL0V1ZnNaWlRCcW5ZTS9lOVdRS0tnVzk5SlJDOUpnbWpvTnNxTG5ocjgybTBHUFVtcmhnQUJBZ1FJRUNCQVlHNENaWlRCejNFT1g1NWw0TGFFdVczZGtmUkhvbUFrRzJLb1pseExFcFFEVHRkVEdVWHc1MGdTckx1dVNId0NCQWdRSUVDQUFBRUNNeGNvenpJb3R5V1VoTUc2T2ErZmVaZDFyeThCaVlLK3BFZFlUODlKZ3F0UkJCY2pwTkFrQWdRSUVDQkFnQUFCQWxNVitDWWEvaXFLaE1GVXQrQUkyeTFSTU1LTjBrZVRla3dTZklqK2xEOTV1TzZqWCtvZ1FJQUFBUUlFQ0JBZ1VLbkE5WVRCcWxJRDNVNFNrQ2hJZ3B4U21CNlRCRy9EeFo4OG5OTE9vYTBFQ0JBZ1FJQUFnV2tKYktmVjNGNWFXeElHVjg4d09PbWxScFhNVGtDaVlIYWI5TzRPOVpnaytERkdFWnhFOFJjTjd0NGtQaVZBZ0FBQkFnUUlFQ0RRaFVCNWhzSGY0dngvRzJYUlJRVml6bGZnNi9sMlRjKytGT2dwU2ZBeDZpMEpndTJYOWZzL0FRSUVDQkFnUUlBQWdSRUlsRnRqZC9lMDQvazluMC9wNDlLWHY4ZTF3T3Q0UGZORjNwUTIzWEJ0bFNnWXpuNkltcytpMG1jZFZseitxa0ZKRXV3NnJFTm9BZ1FJRUNCQWdBQUJBdGNGdnJ6d0x3L1B2ajZxZGRzc2ZCbm5xZVd6QjAxeGdiMXNWbGpFYXluSFVZNmlUQzJaOENyYXZJcituSWJEZWN5YkNOd3FJRkZ3SzgyOFBvZ0R3aVo2OUxMRFhyMkoyT1dnYzlsaEhVSVRJRUNBQUFFQ0JBZ1ErQ1FRNTU3citFOHBuVTFSeC9hMjRIR092WWpQU3VMZ3FpeGp2andqWUt6VDAyaFl1UjJoUEV0czVkeDlySnRwK0haSkZBeS9EVHB2UVJ3STFsRkpsMG1DbitJZ2M5cDVSMVJBZ0FBQkFnUUlFQ0JBWUVRQ2NRNjhpK2FVY2g3bDk2bEpIaXpqUDFlbFhKeVBiWG9SRFNwL1RyRWtDejYxZld5TjFKN2hCRHpNY0RqN1htb3VQL3hSMGFzT0svdGVrcUJEWGFFSkVDQkFnQUFCQWdRbUpWQ1NCMUUyVWNwRitDSWEvMjJVSDZPVWIvSEhOSldSRDJWMHdTYkswWmdhcGkzREMwZ1VETDhOT210Qi9NQWZSL0NmTzZ2Z3laT1NKTmgwR0Y5b0FnUUlFQ0JBZ0FBQkFwTVdpUFBsa2pnNGkzSVM1YXZvekYraWxOdDJQNDZrWTJYazhVVno3VENTSm1uRzBBSVNCVU52Z1k3cWp4LzBSWVRlUnVsaUtnZTFQOGVCYnRORmNERUpFQ0JBZ0FBQkFnUUl6RlVnenFIUG81VFJCdVZiL08rampHR2tRYms5NHRlNGhsakhxNG5BRTRtQ0dlNEU4UU5lRGpyblVicDRrRXBKRWl6andIWXhRenBkSWtDQUFBRUNCQWdRSU5DYlFKeFRiNktjUklYL0pzcVBVVDcwVnZuTkZiMkthNGx0Y3oxeDh4TGVyVUpBb21DZW0va3N1dldzZzY1SkVuU0FLaVFCQWdRSUVDQkFnRURkQXBFc3VJeFNiazlZaE1SM1VkNE9LUEk4Nm5ZcndvQWJZQXhWU3hTTVlTc2t0aUd5ZjZjUnJ0eG5sRDFKRW1TTGlrZUFBQUVDQkFnUUlFRGdDNEZJRm15amxGRUczMFo1RTZXY2gvYzlsVnNSeXNpQ1ZkOFZxMjhjQWhJRjQ5Z09LYTJJSCtUakNQVFhsR0NmQjVFaytOekQvd2dRSUVDQUFBRUNCQWgwS2hESmdsMlVWVlN5aVBJNlN0OEpnM0liODg5eGpWRkdLNXNxRTVBb21Na0dqeC9nbytqS2VRZmRrU1RvQUZWSUFnUUlFQ0JBZ0FBQkF2c0lSTEtnM0phd2ptVVhVWVpJR1B3UTF4citoR0xnMXpSSkZNeG5hMitpSzJXSVVQYTBpZ1BUUlhaUThRZ1FJRUNBQUFFQ0JBZ1EyRi9naTRUQm0vM1hURm15M05yc0lZY3BsTk1JSWxFd2plMTBaeXNqdzNjYUM3eTRjNkhIZmZoOUhKQzZHS1h3dU5aWWl3QUJBZ1FJRUNCQWdFRGxBazNDWUJVTTMwWjUxeU5IZVZoNlNSWWM5MWlucWdZU2tDZ1lDRDZyMnZoQlhVU3NkWlRzNmNjNENHMnlnNHBIZ0FBQkFnUUlFQ0JBZ01EaEFuR3VYcDVoc0l4STMwWDVjSGpFdlNKSUZ1ekZOUDJGSkFxbXZ3M0xOLzdsUVNPWjA1czQ2SnhsQmhTTEFBRUNCQWdRSUVDQUFJRjhnVGh2TDM4bFlSR1JYK2RIdnpGaXVmWXdzdUJHbXZtOEtWRXc0VzBab3duVzBmeVMxY3VjM3NXQlpwVVpVQ3dDQkFnUUlFQ0FBQUVDQkxvVmlIUDRkZFR3YlpSMzNkYjBlM1RKZ2g2UWg2eENvbUJJL1FQcWJ1NE5lblZBaUp0V2ZSOXZudHowZ2ZjSUVDQkFnQUFCQWdRSUVCaTNRQ1FMcm01SCtERmEydldmVTVRc0dQZnVjRkRySkFvTzRodDA1ZXhiQThxQnBQeUZnOHRCZTZWeUFnUUlFQ0JBZ0FBQkFnUU9Fb2h6K25LdHNJeFN2Z2pzY3BJczZGSjN3TmdTQlFQaVA3YnFHRTF3R3VzK2YrejZ0NnhYa2dRWHQzem1iUUlFQ0JBZ1FJQUFBUUlFSmlSUXp1MmpIRWVUZitxNDJaSUZIUU1QRVY2aVlBajFBK3JzNks4Yy9CUUhrZk1EbW1WVkFnUUlFQ0JBZ0FBQkFnUkdLQkRuK2VWTHhyOUVLU09JdTVva0M3cVNIU2p1MXdQVnE5ckhDNXpGcXVVSE1XdDYzeHc4c3VLSlE0REFoQVgraDMveDcvN3IvK2xmL2RzSjkwRFRDY3hYNE4vOWYvL3QwWHg3cDJjRUNIUXBVTDRVYko1eFZyNGNmTlpSWForU0JWSGZycU02aE8xSndJaUNucUF6cW9rZjdtWEVlWkVScTRsUnNvb25pZkdFSWtCZzRnTC81Mi8vNnYrZGVCYzBuOEJzQmY3djMvN0ZQODIyY3pwR2dFRG5BdVhpUGNweFZQU213OHBLc3FBa0pTUTJPMFR1STdSRVFSL0tlWFZzOGtMOUhxazhsMkNYSEZNNEFnUUlFQ0JBZ0FBQkFnUkdLaERuLzZ0bzJvOGROcStNV05oMkdGL29IZ1FrQ25wQXpxZ2lzbktuRWVkcFJxd214dHM0U0p3bnhoT0tBQUVDQkFnUUlFQ0FBSUVKQ01SMXdGazBzOHZuRmp5TDY1Zk5CQ2cwOFJZQmlZSmJZTWIwZGpOMFo1M1lwZzhSYTVVWVR5Z0NCQWdRSUVDQUFBRUNCQ1lrMEh4cHVJd21kL1dRdzVkeEhiT2VFSW1tWGhPUUtMaUdNZUxaTXBxZzNPK1ROWlZiRGk2emdvbERnQUFCQWdRSUVDQkFnTUQwQk9LYTRDSmF2WXp5dnFQV3Y0cGt3VWxIc1lYdFVFQ2lvRVBjak5EeGc3V0lPSzh5WWpVeDNzUUJZWnNZVHlnQ0JBZ1FJRUNBQUFFQ0JDWXEwRU95WUJQWE5NY1Q1YW0yMlJJRjQ5LzA2OFFtbG1GRnA0bnhoQ0pBZ0FBQkFnUUlFQ0JBWU9JQ3pXampaWFNqaTVFRlpXUjBTUlljVFp5cHF1WkxGSXg0Y3plakNWNG1OdkcwT1Fna2hoU0tBQUVDQkFnUUlFQ0FBSUdwQzNTY0xDaC9DV0V6ZGFPYTJpOVJNTzZ0dlU1czNydjQ0ZDhreGhPS0FBRUNCQWdRSUVDQUFJRVpDWFNjTEhnUlg0UWEzVHlSL1VXaVlLUWJxb1BSQkt1UmRsV3pDQkFnUUlBQUFRSUVDQkFZaVVESHlZSy94bldPNXhXTVpGdmYxUXlKZ3J0MGh2MXNuVmo5VC9FRHYwdU1KeFFCQWdRSUVDQkFnQUFCQWpNVnVKWXNLSDlXUFh2eXZJSnMwUTdpU1JSMGdIcG95T1RSQk9VQmh1dEQyMlI5QWdRSUVDQkFnQUFCQWdUcUVXaVNCU2ZSNDNJOWtUbVY1eFdzTXdPS2xTOGdVWkJ2bWhFeDg5NmRkZk5EbnRFdU1RZ1FJRUNBQUFFQ0JBZ1FxRVFncmlNdW9xdkxLTm5KZ2gvaXk5RVMxelJTQVltQ2tXMlkrSUU1aWlhdGtwcjFJWDY0ejVKaUNVT0FBQUVDQkFnUUlFQ0FRR1VDVGJJZzg0dk1LMEczSUZ4SmpQQlZvbUI4RzZYOEVKYS9OWm94clRPQ2lFR0FBQUVDQkFnUUlFQ0FRTDBDa1N6WVJPOWZKd3M4alhqcjVKakNKUWxJRkNSQkpvWlpKY1Vxb3drMlNiR0VJVUNBQUFFQ0JBZ1FJRUNnWW9HNHRsaEg5OThrRTdnRklSazBLNXhFUVpaa1FweTQ3ZUFrd3BUTVdzYTB6Z2dpQmdFQ0JBZ1FJRUNBQUFFQ0JCcUJNdnI1ZmJMR1dYSTg0UklFSkFvU0VCTkRsQis4ak1sb2dneEZNUWdRSUVDQUFBRUNCQWdRK0NRUW93b3U0eityS0prUE4zd1dYNWl1STZacFJBSVNCU1BaR1BIRHNZaW1QRTlxempvcGpqQUVDQkFnUUlBQUFRSUVDQkQ0SkJESmdvdjRUOVlYbkZkeFQ1dnJvYXYvZXgxWVFLSmc0QTF3cmZxc0h6YWpDYTZobWlWQWdBQUJBZ1FJRUNCQUlGZWdlUlphNXZNS3lzUGMxN210Rk8wUUFZbUNRL1J5MXoxSkNuZVdGRWNZQWdRSUVDQkFnQUFCQWdRSTNDWlF2dWo4Y051SGozai9aWXdxV0Q1aVBhdDBJQ0JSMEFIcVEwUEdEMFJKRW1ROHhMRGNLN1I1YVAyV0owQ0FBQUVDQkFnUUlFQ0F3RU1FbXVjVlpIM1plVlgxK21yRzY3QUNFZ1hEK2wvVm52VURkdDc4d0Y3RjlVcUFBQUVDQkFnUUlFQ0FBSUZPQkpybkZieE9EUDY4K1JJMU1hUlFqeEdRS0hpTVd1STY4WU53Rk9GZUpvVmNKOFVSaGdBQkFnUUlFQ0JBZ0FBQkF2Y0tSTEpnSFF0bC9zbkVzM3NydFVEbkFoSUZuUlBmVzBIV2FJSjM4VU82dTdjMkN4QWdRSUFBQVFJRUNCQWdRQ0JYNERReDNOUDRNbldWR0Urb1J3aElGRHdDTFhtVnJFVEJKcmxkd2hFZ1FJQUFBUUlFQ0JBZ1FPQmVnZmpDY2hzTC9YVHZndnN2c041L1VVdDJJU0JSMElYcW5qR2IydzVlN0xuNFhZdDlqQi9PelYwTCtJd0FBUUlFQ0JBZ1FJQUFBUUlkQ3F3amRubTRlc1prVkVHRzRnRXhKQW9Pd0V0WU5XczB3WGxDVzRRZ1FJQUFBUUlFQ0JBZ1FJREFvd1RpaTh2TFdQSDBVU3Zmdk5MNjVyZTkyNGVBUkVFZnlyZlhzYno5b3dkOWN2YWdwUzFNZ0FBQkFnUUlFQ0JBZ0FDQlpJRm1sSFBXZ3cyTktramVQZzhKSjFId0VLMzhaVThTUW42SUg4aUxoRGhDRUNCQWdBQUJBZ1FJRUNCQTRGQ0J6RkVGcTBNYlkvM0hDVWdVUE03dDRMWGkrUVRMQ1BMTndZR2VQRGxQaUNFRUFRSUVDQkFnUUlBQUFRSUVEaGFJTHpHM0VlVGR3WUgrT2NEejVyb3BLWnd3K3dwSUZPd3JsYi9jTWlua0ppbU9NQVFJRUNCQWdBQUJBZ1FJRU1nUVdHVUVhV0preGtwczFyeERmVDN2N28yNmQyNDdHUFhtMFRnQ2RRcTgvSi8vbDJXZFBkZHJBdU1YK0IvSDMwUXRKRUNBd084Q01hcGdGeU1CM3NSL1hpYVF2SXhZNnhJeklaWVFld29ZVWJBblZPWmlzYU1mUmJ4bkNUSGRkcENBS0FRQkFnUUlFQ0JBZ0FBQkF1a0M2OFNJcThSWVF1MGhJRkd3QjFJSGl5eVRZbTZUNGdoRGdBQUJBZ1FJRUNCQWdBQ0JOSUZtQkVBWlZaQXhyVEtDaUxHL2dFVEIvbGFaU3k0emdzVVBueEVGR1pCaUVDQkFnQUFCQWdRSUVDRFFoY0E2S1dqNVU0a1p0MjRuTldmK1lTUUtodG5HeTRScTN5YkVFSUlBQVFJRUNCQWdRSUFBQVFLZENEU2pDckwrQXNLcWswWUtlcU9BUk1HTkxKMi9tZkY4Z20zbnJWUUJBUUlFQ0JBZ1FJQUFBUUlFRGhOWUg3YjZwN1ZmTk05NisvU0dtZTRFSkFxNnM3MHhjdXpjeXhzL2VQaWIyNGV2WWcwQ0JBZ1FJRUNBQUFFQ0JBajBKeENqQ3JaUjI0ZWtHdDEra0FSNVh4aUpndnVFOGo5ZkpvVDhHRDl3RndseGhDQkFnQUFCQWdRSUVDQkFnRURYQXV1a0NrNlQ0Z2h6ajRCRXdUMUFIWHg4bkJCem14QkRDQUlFQ0JBZ1FJQUFBUUlFQ1BRaGNCNlZmRXlvNkZtTTBGNGt4QkhpSGdHSmdudUFPdmc0STFGdzBVRzdoQ1JBZ0FBQkFnUUlFQ0JBZ0VDNlFJeUd2b3lnSlZtUU1aMWtCQkhqYm9HdjcvN1lweDBJUEUySXVVMklJUVFCQW5VSi9CSVorTHA2ckxjRUNCQWdRSURBbUFUT29qRXZFeHBVRWdVbGxxbERBU01LT3NUOU1uVFdnd3liQjRKOEdkNy9DUkFnUUlBQUFRSUVDQkFnTUVxQjVobHJHUTgxZkI3WFZVZWo3T1NNR2lWUjBPL0dYQ1JVOXo0aGhoQUVDQkFnUUlBQUFRSUVDQkRvV3lCckpFQVpWV0RxVUVDaW9FUGNHMEl2Ym5qdm9XOWRQSFFGeXhNZ1FJQUFBUUlFQ0JBZ1FHQUVBdWRKYlZnbXhSSG1GZ0dKZ2x0Z09ucDdtUkIzbHhCRENBSUVDQkFnUUlBQUFRSUVDUFFxRUxjZjdLTENqQkhTUmhSMHZPVWtDam9HL2lMODBSZi9mOHgvdDQ5WnlUb0VDRXhlNEhqeVBkQUJBZ1NtSXJDWVNrTzFrd0NCU1Fwc0VscjlUVHlud0xsUkF1UnRJU1FLYnBQcDV2MW5DV0YzQ1RHRUlFQmdRZ0x4aS9BMG12dGlRazNXVkFJRXBpM3dOSTQ3WjlQdWd0WVRJREJpZ1cxUzI1WkpjWVM1UWVDckdQNXh3OXZleWhhSVg3aUxpUG4zUStQRzl2TDN6UTVGdEQ2QkNRazB4NDZMYVBJM0UycTJwaElnTUErQjcrSzhZenVQcnVnRkFRSmpFb2p6bTEyMDU5QS9HLzgyamxFblkrclhuTnBpUkVGL1czT1JVRlhHL1R3SnpSQ0NBSUVlQmM2akxrbUNIc0ZWUllEQUo0SHpPSmsvK3ZRL013UUlFTWdUS09jM2gwN0xRd05ZLzNZQmlZTGJiYkkveWZoRmU1bmRLUEVJRUJpdlFKeWdyNk4xR2Jjc2piZVRXa2FBd0pnRlNwSnlNK1lHYWhzQkFwTVYyQ2EwM0hNS0VoQnZDeUZSY0p0TS92dkhDU0V2RW1JSVFZREFCQVFpU2JDTVpyNmFRRk0xa1FDQmVRdThpT1BSYXQ1ZDFEc0NCQVlRMkNiVnVVeUtJOHdYQWhJRlg0Q00vTDlHRkl4OEEya2VnUXlCWnFqdkppT1dHQVFJRUVnUU9JdmowaUloamhBRUNCRDRYU0NlTFZDdWF6SnVxODc0TXRaV3VVRkFvdUFHbEk3ZXl0aUpkeDIxVFZnQ0JNWWxjQmJOT2ZRQlArUHFrZFlRSURCbGdYSUx3dm1VTzZEdEJBaU1VbUNiMEtxTWE2eUVac3d2aEVSQmY5djBLS0dxWFVJTUlRZ1FHTEZBZkd0M0VzMTdPZUltYWhvQkFuVUtQSXZqMDdyT3J1czFBUUlkQ1d3VDRucVdVd0xpVFNFa0NtNVM4UjRCQWdRR0VHaUc5bTRHcUZxVkJBZ1EyRWZnVlJ5bmZIdTNqNVJsQ0JEWVIyQzd6MEwzTFJQSHBlVjl5L2o4NFFKZlAzd1ZhenhTSUdORXdjVWo2N1lhQVFMVEVOaEVNOHNRMzR6cFF3VFpaUVFTZ3dDQnlRdVVjNUNzYjkzS24wdzhidTR2bmp5TURoQWdNSnhBT1k3RThhU2NyeHg2dStWaXVGN010MmFKZ3Y2MjdjRy9vUDFTN205anFZbEEzd0x4aS9JMDZueWVWTy9IaUxPTVk4WXVLWjR3QkFoTVdDQ09MeVZSc0kxeThMbEl4Q2duOUdkUlZsRk1CQWdRT0ZUZ0lnSklGQnlxMk1INmJqM29BRlZJQWdRSVBFU2dmRHNYeS8vMUlldmNzK3hLa3VBZUlSOFRxRWlnK2FKaGxkamxsM0hjT2ttTUp4UUJBdlVLbEVUQm9kUHkwQURXLzZPQVJNRWZUYnhEZ0FDQjNnU2FiL28yaVJXK2pZdUM4OFI0UWhFZ01BT0JPQzZVay9IWGlWM1pOTWV2eEpCQ0VTQlFvVUJHb3VDb1FyZk91eXhSMERteENnZ1FJSENud0RvK3pSZ09YQ29wOS9tdHlveUpBQUVDWHdwRXNtQWQ3NzM3OHYxSC92K2JXRTlTOHBGNFZpTkE0SlBBN3RQYzQyZXl6cU1lMzRJWnJpbFJNSjJObXZXTGZUbzkxbElDTXhlSWIrT1cwY1VmRXJ0WmJqbTRUSXduRkFFQzh4TllSWmZLYzB3eXB1ZHhIRHZOQ0NRR0FRSjFDalNqblE3dWZCeUxGZ2NIRWVBekFROHovSXpEZndnUUlOQ1BRRE5rTi9QYnVMZWw1VTN5b1o5T3FJVUFnYWtLYktMaFdVbkt2OFp4WjV0MXNqOVZVTzBtUU9BZ2dmZXg5cUdqQWhZUll4ZkZsQ1FnVVpBRUtRd0JBZ1FlS0xDSjViOTU0RHAzTGY0aVBpekZSSUFBZ2I0Rk5sSGhjZCtWcW84QWdka0laSXlHUEpxTnhrZzY0dGFEa1d3SXpTQkFvQjZCK1BidE5IcnJvcjZlVGE2bkJPWXU4Q3lPYTJkejc2VCtFU0RRbWNCRlF1VGpoQmhDWEJPUUtMaUdZWllBQVFKZEM4VEo5Q0xxV0VjeEVTQkFZRTRDUDhUeGJUbW5EdWtMQVFLOUNWejJWcE9LOWhhUUtOaWJ5b0lFQ0JCSUVUaVBLSm0zSEtRMFNoQUNCQWdrQ0p4SHN1QW9JWTRRQkFqVUpiQkw2TzRpSVlZUTF3UWtDcTVoakh6V0w5NlJieUROSTNDZlFKeEFyMk9aWi9jdDUzTUNCQWhNVktBa1FUY1RiYnRtRXlBd25NQXVvZXBGUWd3aHJnbElGRnpER1Btc2k0dVJieUROSTNDWFFETWs5OVZkeS9pTUFBRUNNeEI0RWNlNzFRejZvUXNFQ0JDb1drQ2lvT3JOci9NRUNQUWgwQXpGM2ZSUmx6b0lFQ0F3QW9Hek9PNHRSdEFPVFNCQVlCb0N1MmswczY1V1NoVFV0YjMxbGdDQllRVE9vdHFudzFTdFZnSUVDUFF1VUc1QktNOWpNUkVnUU9CZWdkOSsrMjEzNzBMM0wzQjgveUtXZUlpQVJNRkR0Q3hMZ0FDQkJ3ckV0Mm9uc2NyTEI2NzIvN2QzdDllTm0wbmFnRi92bWY5V0J0WkUwTm9JckkyZ05SR1lFNEcxRVppT1lPUUlobzVnMVJFTU80S1ZJMWc1Z3BVajJMY2VIOHBITGV1VHFDSlI1SVZ6MEMxUlFLRndQU0lFM2dSSml4TWdRS0M3d1BqSXhHWDNuZEEvQVFKdEJFWkFhVW9VK0NvU25NUnlTajBuRUg4czEvR3piNS83K1J0di8ydFM0dmJHelZtTUFJRXBBcHRMYjIraWhqOWVVeUN0UzRCQVo0Ri9qM09YY1J3MEVTQkE0Rm1CT0dlYS9LQTBqalZmUGJzQlAzaTNnQ3NLM2syMjF4Vk85N3AxR3lkQTRMMENxMWhCU1BCZU5jc1RJSEJJQWo0eThaQkcwNzRRSUhBMEFvS0NveGxxTzBxQXdDNEZJaG0vak8xTnZZcG9seTNiRmdFQ0JDb0V2b21pVnhXRjFTUkFnQUNCT2dGQlFaM3Q0OHEzajIvWTR2dlRMZGF4Q2dFQ094YUlrT0FzTnZtUEhXL1c1Z2dRSURCWGdlL2l1SGd4MStiMFJZQUFBUUovRmhBVS9ObWs2cGJiaE1LbkNUV1VJRUNnWG1CVnZ3bGJJRUNBUUN1QlZZUUZKNjA2MWl3QkFnU09XRUJRMEd2dy9ZSHROVjY2UFVLQk9CRytpdDMrY0lTN2JwY0pFQ0R3a3NCNHY1YnJseGJ3TXdJRUNCQ1lqOEJmNXRQS3dYZHlrN0NIWndrMWxDQkFvRWdnUW9MektQMTlZdm1mb3RaZFlqMmxDQkFnc0kzQVphdzBIdWhQbmI2TjQrUmx2RFA1MWRSQzFpZEFnQUNCV2dGQlFhM3Z3K29aSi91bkR3djZtZ0NCK1Foc0xxbTlUdXpveHppWlhpYldVNG9BQVFKYkNjVHg3U1pXL0srdFZ2N3pTditJZW1zZm1maG5HTGNRSUVCZ1RnSmZ4WUY2VHYwY2JDK2JCeEgvTzNVSFk3eDhQdWhVUk9zVEtCQ0krL2dJQ1Q0bWxmNGw3dXRuU2JXVUlVQ0F3R1FCeDdqSmhBb1FJUENDUUJ4akpqOG85VGpwQmVBdGZ1UTlDclpBMjJhVitNVzkyMmE5eCt2RW5jaURoOGNvdmlld1o0RzRYeTZpaGF5UTRMZW9OZXFaQ0JBZ01DZUJSVFR6YTFKREgrSzRlWlZVU3hrQ0JBZ1FLQkFRRkJTZ3ZsRHlseGQrOXRZZm5iNTFRY3NSSUZBdkVDZTdwN0dWekJQZVpRU0xOL1dkMndJQkFnVGVMckI1d21QeDlqVmVYZkw3T0g2ZXY3cVVCUWdRT0hpQk9CYWNKT3prNTRRYVNqd1FFQlE4d05qQmwzY0oyemhMcUtFRUFRSjVBdGRSNnV1a2NwL2laUHdxcVpZeUJBZ1FTQldJNDlNNkN2NllXUFE2NlFGQ1lrdEtFU0N3QndHUGIvYUEvdG9tdlpuaGEwSzVQMTlIdVc4bmxuUkhtZ2hvZFFKWkFuR0N1NHhhSDVMcWVjbEJFdVN1eThUdndXVnM4MlRYMnoyQTdkM0dBOC9WQWV6SFVlMUNqTmt5ZnVjdllxY3pqbjBqWkYzRlBPcVpDQkFnUUdCR0FvS0MzUTdHYmNMbXpoSnFLRUdBd0VTQk9GRWU5OFVmSnBaNXVQb2lUc0R2SHQ3ZzYva0x4Ty9CYVhUNWovbDNPc3NPUnppMm1tVm5tbnBOWUJFTHJHTWVEL1NuVGgvamZqU09mNnVwaGF4UGdFQmJnWk9FenAxREpTQStMT0dsQnc4MTZyKytUZGpFTi9FSE5lUE9sTkNLRWdTT1UyQnpIN3hPM1B1ZjRpUTVzMTVpYTBxOUluRHh5cy85K0htQnIrTyt4Tzk1bjluK0pJNVhOOUhjTXJIQnEvaGRPRTJzcHhRQkFyMEV6aExhSGNjbFU2S0FvQ0FSODdWUzhZZDEvZG95Yi94NXhwM3BqWnV5R0FFQ1R3aGN4VzNmUEhIN05qZU5OemxkYnJPaWRXWWhzSmhGRjMyYnVPamIrbkYzSHVjMDR6ajRLVWxoWEpsd25WUkxHUUlFQ0JCSUVCQVVKQ0MrczhSNFVEQjFPcDlhd1BvRUNHd25zSGtHOUx2dDFuNXlMUzg1ZUpKbC9qZHVuZ0g5TVA5T1o5MmhvR0RXdy9OcWM0dFlZcnlFSkdNYUg1bTR6Q2lrQmdFQzdRVE9FenErVGFpaHhBTUJRY0VEakIxOWVaT3duYk9FR2tvUUlQQk9nVGlKUFlsVlZ1OWM3YVhGZjl4Y3d2dlNNbjQyWHdFUGNxZVBqWmNmVERmY1c0VTRmdDNGeGhlSkRmd1F4MW5uT0ltZ1NoRm9JakRPcjZaT3QxTUxXUDlMQVVIQmx4NjcrTzRtWVNQbkNUV1VJRURnL1FMWHNVckdtM2VOTFgrT2sremwrTUxVVm1EUnR2TjVOWDR4cjNaMDh4NkJPSTZONCtKUDcxbm5sV1Y5Wk9JclFINU00QUFGTXE3T3V6MUFsNzN1a3FCZzkvd1pRY0Y0QnVaczk2M2JJb0hqRllqNzNHWHMvZFNQTjcwSEhKZnFMdTYvOFg4L2dmaDlPSTJ1TTA1cyt1MThmc2NYK1NWVjNMSEFNcmFYOGRMSzBmWjQvNWVyOFlXSkFJSERGOWo4UFoyOG94RmEzazR1b3NBWEFvS0NMempxdjRsZjRuWFNWczZUNmloRGdNQXJBcHRnN2grdkxQYWVINC8zSmJoOXp3cVduWjJBQjdkNVErTGxCM21XZTZrVXg3TzcyUEFpY2VQZnhYSFhmU3dSVkNrQ014WTRUZWp0MTRRYVNqd1NFQlE4QXRuUnQ1OFR0bk9lVUVNSkFnVGVKckI2MjJKdld1cFRuRlJmdjJsSkM4MVpZREhuNWhyMjVrRmh3MEY3MkhJYzEyN2kreDhmM2pieDYxV0VCU2NUYTFpZEFJSDVDNXdudEhpYlVFT0pSd0tDZ2tjZ08vcDIvREdkT24yY1dzRDZCQWk4TGhBbnFsZXhWTllsNWlQeFhyeStWVXZNV1NCK0owNmp2NnpmaVRudjZpNTd1OWpseG15clJpRENnbVZVem5neVpEVDRkY3pYNHdzVEFRSUhMWENhc0hjWmo2MFMyamlzRW9LQy9Zem5PbU96THN2TFVGU0R3UE1DY1I4N2o1OSsvL3dTNy82SmowSjhOOWtzVi9DZ05uOVl2UHdnMzNSZkZSZXg0YXlQVFB3MmpzT1grOW9SMnlWQVlDY0Nad2xidVUyb29jUWpBVUhCSTVBZGZidE8yczU1VWgxbENCQjRKQkFucHlkeDAvV2ptNmQ4T3o0S2NUMmxnSFZuSTdDWVRTZUgxY2pGWWUzT2NlNU5IT2R1WTg4WGlYdi9qemdlWnp5UVNHeEpLUUlFTWdRMjUxb1pWK2pkWlBTanhwY0NYOFVCL2N0YmZMY1RnYmhqakYvb3FYZU1YMlA4VG5mU3NJMFFPREtCdUk5ZXh5NS9UTnJ0WCtLKzZrUTNDWE9mWmVMMzRqUzIvei83N09HQXQvMWIzRTlPRG5qL2ptclhIRU9QYXJqdExJR3RCT0k0Y1I0ci9tdXJsUitzRkg4N3ZucndyUytUQkZ4UmtBUzVSWm54SUdUcTlFM2N3VHo0bUtwb2ZRS1BCT0ordFlpYnNrSUNINFg0eUxmNXR4Zk4rNTl6KzE1K01PZlJlWDl2aTFqbDEvZXY5dVFhSCtLNGZQWGtUOXhJZ0VCbmdmT0U1ck9PTXdtdEhGWUpRY0greGpNaktCamRML2EzQzdaTTRQQUU0bVQwTlBZcTg0UjBHVW4zemVGSkhlMGVMWTUyejNlejQrZTcyWXl0VkF2RWNlOHV0ckZJM003M2NYdytUNnluRkFFQyt4YzRUMmpCT1ZZQzRsTWx2UFRnS1pVZDNSWi84TVlmMGE4bmJzN0xEeVlDV3AzQVE0RzRYNDQvT0ZOZkZuUmZjbndVNHNYOU4vN3ZMYkFKa2FhKzdPQlRLRnoxbG5peCs3RnZVKzQvL3FhOXlOdnZoM0cvV1ViWFB5UjFQcTdRT3QyRUVFa2xsU0ZBWUY4Q2NYejR2NFJ0LzJjY0V3NzU3Mm9DMFhZbC9yTGRhdFpLRXJpT090OU5yUFg3eXcvaURuSXpzWTdWQ1J5OXdPYUVkc3FEbkllR1huTHdVT013dnI1STJJMVZISy9YQ1hWbVdTTHVRK1B2MnBUN2tMOXBzeHpaN1p1SzMvZGwvRjZNKzg2VTM0djdCcjZPTDFZeFo5d1g3MnY2bndDQlBRakVjZUU4YWJNM1NYV1VlU1RncFFlUFFIYjg3VGloeXBndU00cW9RZUNZQmVJUDFsbnNmOWF6WG9QU1J5RWUzaS9VWXVJdWpUZnJ5enJ1VDJ5bGJQV00vWnZxWExaekNtOHRNTVowaEtjWjA4YzRYaTh5Q3FsQmdNQmVCUzR5dG43STRYdUd6NVFhZ29JcGV0UFhYVTh2OFh1RmxEdGFVaS9LRUdnbkVDZWRKOUYweGdPYyszMy82UWdlRU43djYxSDhINzhqcDdHalU1OFJ6ZndkbTZWNy9ON2ZSR05UMzFqcVlwWTdwNm10QlRhL0Y4dXRDL3g1eGF2TmZmTFBQM0VMQVFKZEJNNFRHdjJjVUVPSlp3UUVCYy9BN09MbStNTjVGOXNacjFlZE9vMTNpbDVNTFdKOUFrY3NjQlg3L2szUy92OFNkWlpKdFpTWmo4QjVRaXZYQ1RVNmxKaTZuejdScDhNb3Y3UEhPT2NaeDltTWM1Nng1ZkVTaEttL1o2T09pUUNCUFFna2hlK2o4L1VlMmorYVRRb0s5ai9VV1gvb0Z2dmZGUjBRNkNjUWY2d3VvdXVwN3hYeWNNZTk1T0NoeHVGOFBYNVBKazN4UUNucmVEK3BqeDJzdkVyWXhpS2hoaEx6RXhqam12VVNoUEdSaWN2NTdhS09DQkI0ZzhEa3Y2bWJiYXpmc0MyTGJDbmdVdysyaE10YUxmN0luVVN0LzAycTk5YzRFYjFOcXFVTWdZTVgyTnovYm1OSHg3TlRHZE00QWI3SktLVEc3QVMrbmRqUnNmMXU4SnI0QzNQQXE1L0d2bVZkd1RXWS9qM09mUngzaDRTSlFCT0JPUCs2amxZL1RtMDM3dnRmVGExaC9lY0ZCQVhQMit6c0ozRm5XY1hHTXA3UkhLK0x2dHhaNHpaRW9MbEEzUGZXc1F0VEg5QTBWOUErQVFJRVdndU05OFE0aS9PZnU5WjdvWGtDUnlLd2VaSW00MG5TVDNHL3Z6Z1N0cjNzcHBjZTdJWDlUeHNkcVZyR3ROamMrVEpxcVVIZ0dBU0VCTWN3eXZhUkFJRkRGaGhYSjV3ZDhnN2FOd0lISnBEMTRINTlZQzZ6MngxQndReUdKTkt3RVJSa3ZHWnZYRDY5bU1FdWFZRUFBUUlFQ0JBZ1FJQUFBUUtQQlM0ZjM3RGw5K1B4azZsUVFGQlFpUHZPMHF0M0x2L2M0bGwzdnVmcXU1MEFBUUlFQ0JBZ1FJQUFBUUx2RW9ncm4wOWpoUS92V3VucGhYK0pKMXB2bi82Ulc3TUVCQVZaa3RQclhFMHY4WHVGOGJGU2k2UmF5aEFnUUlBQUFRSUVDQkFnUUNCRElPc0p6VlZHTTJxOExDQW9lTmxuWnovZHBHS2ZremE0VEtxakRBRUNCQWdRSUVDQUFBRUNCRElFTGpLS1JJMTFVaDFsWGhBUUZMeUFzNGNmclpLMjZhcUNKRWhsQ0JBZ1FJQUFBUUlFQ0JDWUpoQlhQSStRWUx6NTZOUnB2T3pnWm1vUjY3OHVJQ2g0M1doblM4UXYvU28yTmo3bUoyTmFaaFJSZ3dBQkFnUUlFQ0JBZ0FBQkFoTUZ2T3hnSXVDdVZ4Y1U3RnI4OWUydFhsL2tUVXU0cXVCTlRCWWlRSUFBQVFJRUNCQWdRS0JLWVBNbWhsa2ZTWDFkMWFlNlh3b0lDcjcwbU1OM1Y0bE5MQk5yS1VXQUFBRUNCQWdRSUVDQUFJSDNDaXpmdThJenkzLzJhUWZQeUJUY0xDZ29RSjFTTW43NTcyTDluNmZVZUxDdXF3b2VZUGlTQUFFQ0JBZ1FJRUNBQUlIZENXeXVKdmd1YVl1cnBEckt2RUZBVVBBR3BEMHNza3pjNWxYY1FVOFM2eWxGZ0FBQkFnUUlFQ0JBZ0FDQnR3aGN2bVdoTnl6eld5eHovWWJsTEpJa0lDaElnc3dzczdta0p1dXFncStqdDZ3N2FPWnVxa1dBQUFFQ0JBZ1FJRUNBd0lFS2JKNnNYQ1R0M3ZYbXl1dWtjc3E4SmlBb2VFMW9mejlmSm03Nmg4MWxQNGtsbFNKQWdBQUJBZ1FJRUNCQWdNQ3pBdVBKeXZHa1pjYTB6Q2lpeHRzRkJBVnZ0OXJwa3NsWEZZemVWenZkQVJzalFJQUFBUUlFQ0JBZ1FPQW9CVFpYRTJSZDFleE5EUGZ3Vy9TWFBXelRKdDh1c0l4RnM5Nzg0OXU0dzE1RUFPRzFQVy8zdHlTQmx3VEdINjN6bHhid013SUVDQkI0WFNET1Q5YXhWTlpIcDcyK1FVc1FJTEFMZ2F2WVNOYlZCS09XYWNjQ3JpallNZmg3Tmxkd1ZZRTNObnpQQUZpV0FBRUNCQWdRSUVDQUFJRjNDV3hlOHB6MVpPZXZudWg4RjMvYXdvS0NOTXF5UXN2RXl0OUVyY3g2aWEwcFJZQUFBUUlFQ0JBZ1FJREFBUWhrWGdHd1BBQ1BscnNnS0pqNXNCVmNWZkI5cEh6bk05OXQ3UkVnUUlBQUFRSUVDQkFnMEV4Zzh6ampZMUxidjhWam9WVlNMV1hlS1NBb2VDZlluaGEvak8yT3p3N05tbFp4Sno3SktxWU9BUUlFQ0JBZ1FJQUFBUUlFUW1DVnFKQjVaVUppVzhkUlNsRFFZSndqU2J1TE5qUHZLRjZDMEdEY3RVaUFBQUVDQkFnUUlFQ2dpMEE4RWJtTVhzZmpqSXhwUEVtYStmZ25vNmVqcXZGVlBBZzlxaDN1dkxOeDU3dU4vclB1ZklQaWJ6SCsxK01MRTRGakZJajdsQVBnTVE2OGZTWkE0TkFFL2lQT1o5YUh0bFAyaDBBbmdUaW5PbzErYjJMTytxU0RIK04rdll4NnBqMEp1S0pnVC9CYmJ2Wnl5L1dlVzgxTEVKNlRjVHNCQWdRSUVDQkFnQUFCQW04VldNV0NXU0dCcXduZXFsNjRuS0NnRURlNzlPYlovOCtKZGNlZDJSVUZpYUJLRVNCQWdBQUJBZ1FJRURnbWdiaWFZRHlaK1czaVBsL0c0NTY3eEhwS2JTRWdLTmdDYmMrckxKSzMvMjNjdVpmSk5aVWpRSUFBQVFJRUNCQWdRT0RBQlRZdk9WZ203dWF2RVJLc0V1c3B0YVdBb0dCTHVIMnRGbmVjMjlqMmo4bmIveUh1NU9mSk5aVWpRSUFBQVFJRUNCQWdRT0N3QlZheGUxa3ZPUmhTMlMrMUhqVk5Xd2dJQ3JaQTIvY3FFUllzbzRkZmt2dTQzaVNDeVdXVkkwQ0FBQUVDQkFnUUlFRGcwQVEyVnlWbnZ1VGdjenpPOGJMb21meWlDQXBtTWhCYnRMSFlZcDJYVnZuOS9RcmlEbi95MGtKK1JvQUFBUUlFQ0JBZ1FJREFjUXZFWTRhekVQZ2hXY0hWQk1tZ1U4b0pDcWJvN1hIZFNOdHVZdlBaTDBINEVEVlhlOXd0bXlaQWdBQUJBZ1FJRUNCQVlNWUNteWNXcjVOYi9HbnorQ2E1ckhMYkNnZ0t0cFdid1hwRkwwSDRHSGYrcXhuc25oWUlFQ0JBZ0FBQkFnUUlFSmlmd0FnSnZrbHNhM3djNGpLeG5sSUpBb0tDQk1ROWwxZ1ViUC83Q0FzcTZoYTBxaVFCQWdRSUVDQkFnQUFCQXJzUWlNY0l5OWhPNXZzU2pMWVg4UVRvM2ZqQ05COEJRY0Y4eG1LclRvcGVnakI2K2Fld1lLc2hzUklCQWdRSUVDQkFnQUNCZ3hQWVBEYklmbCtDVC9GNEp2dGxEQWRudjQ4ZCtpb0daaC9idGMxa2diampycU5rZHJvM0xnTTYzNFFSeVIwclIyRC9BbkcvY1FEYy96RG9nQUFCQWxNRi9pUE9WZFpUaTFpZkFJSG5CZUtjNlN4K3VvNDU4Nk1ReDJPTnM3ai8zc2IvcHBrSnVLSmdaZ015b1oyTFdIZmMyVEtuY1NCWWJ3NE1tWFhWSWtDQUFBRUNCQWdRSUVDZ2dVQThGamlOTnRjeFo0WUVVZTcvWFFvSkJzTThKMEhCUE1mbDNWM0ZuV3k4cm1lRUJkbVRzQ0JiVkQwQ0JBZ1FJRUNBQUFFQ0RRUWlKRGlKTnE5anpnNEp4a3NPVmcwSWpyWkZRY0VCRFgzYzJkYXhPOWtmbVRpRWhBVkR3VVNBQUFFQ0JBZ1FJRURnU0FRMkljRTZkdmREOGk2UHE2QVh5VFdWU3hiNFMzSTk1ZllzRUdIQmN2TlNnWS9KcmR5SEJkNnpJQmxXdWIwS2ZON3IxbTJjQUFFQ0JESUV4bFdWSmdJRThnVldVVEk3SkJoZFhteXVoaDVmbTJZcTRNME1aem93VTlvcVRQOUdXOTdnY01yZ1dKY0FBUUlFQ0JBZ1FJREF6QVhpOGNRcVd2eXVvTTJmSWlTNExLaXJaTEtBb0NBWmRDN2xObGNWcktPZmNTVkE5aVFzeUJaVmp3QUJBZ1FJRUNCQWdNQU1CQXBEZ2w4aUpEaWJ3UzVxNFEwQzNxUGdEVWdkRjRrNzRVMzB2U2pxL1krWElSVFZWNVlBQVFJRUNCQWdRSUFBZ1IwTEZJWUU0NG5HaXgzdmpzMU5FQkFVVE1DYis2b1JGbHhIajM4djZuT0VCZitLZzhtaXFMNnlCQWdRSUVDQUFBRUNCQWpzU0tBd0pCaDdNTjZYNEhaSHUySXpDUUtDZ2dURU9aZUlPK1FxK3Z1NXNNZC94a0ZsV1ZoZmFRSUVDQkFnUUlBQUFRSUVpZ1RpWFA0azVuRTFjc1Y3RW95dS96TWVrNnpIRjZZK0F0NmpvTTlZVGVxME9DRWN2ZjBjQjRERnBDYXRUSUFBQVFJRUNCQWdRSURBemdSR1NCQWJXOGRjOGVrR1l6ODhSaGdLRFNkQlFjTkIyNmJsSFJ3RVJsdS94RHcrUHZGdW14NnRRNEFBQVFJRUNCQWdRSURBYmdUaThjRlpiT2s2NW0rS3R1aXhRUkhzTHNvS0NuYWhQSk50N0NnczhJa0lNeGx2YlJBZ1FJQUFBUUlFQ0JCNFNpQWVGNXpIN1NNa3FQaUV0TEhKWDJNKzh3VGlvT2c1ZVkrQ251TzJWZGViTytwNXJEelN2YXBwSEd6K093NCtsMVViVUpjQUFRSUVDQkFnUUlBQWdlMEVOdWZwLzRxMXEwS0M4Y1RoZVBQQ3UrMDZ0TlljQkZ4Uk1JZFIySEVQTzdxeVlPelZwNWdYRGhJN0htQ2JJMENBQUFFQ0JBZ1FJUEJJWVBNWTRDcHVybnJUd3JGRlZ4Yy9jdS82cmFDZzY4aE43SHR6b0xpSk1sV3ZTYnJ2Y0Z4Mk5CTEZzUzBUQVFJRUNCQWdRSUFBQVFJN0ZvaHovN1BZNUNybXFqY3R2TitqdjhWNS8vWDlOLzd2SytDbEIzM0hibExubTJmNXo2Tkk1Y3NRUm84amlCZ3ZSVmlPYjB3RUNCQWdRSUFBQVFJRUNPeE9JTTdERjdHMWRjelZJY0hmaFFTaGZDQ1RLd29PWkNDMzNZM05sUVhyV0wvNndERmFIS0hFdUxyZ2RueGpJa0NBQUFFQ0JBZ1FJRUNnUm1Cem5yK0s2aDlydHZCRjFSRVNqRzJaRGtUQUZRVUhNcERiN3NZT3J5d1lMWTR3NHNiVkJkdU9sdlVJRUNCQWdBQUJBZ1FJdkM0UTU5dm5zZFI0NmErUTRIVXVTendoNElxQ0oxQ084YVlkWDFrd2lNZlZCZU9ORHIxM3dUSCt3dGxuQWdRSUVDQkFnQUNCZElITk9mMHlDbitmWHZ6cGdxNGtlTnFsL2EydUtHZy9oRGs3OE9ES2drODVGVit0TXE0dUdPOWRjTFU1b0wyNmdnVUlFQ0JBZ0FBQkFnUUlFSGhhSU02cEwrSW40MGs0SWNIVFJHNTloNEFyQ3Q2QmRTeUx4a0ZtRmZ0YStiRXBqeWwvaXhzdXZhN3BNWXZ2Q1JBZ1FJQUFBUUlFQ0x3c0VPZnVwN0hFVmN5N2VKbEJiT2IzeVpVRTl4SUgrcitnNEVBSGR1cHV4UUZuR1RWK21Gcm5uZXVQbHlPTXdHRDl6dlVzVG9BQUFRSUVDQkFnUU9Db0JPSjgvU1IyK0RMbVhaNnpqeWY0enIxOCtQQi8xUVFGaHovR1crOWhISHdXc2ZKSUo3L2V1c2gySzM2TzFVWmdjTFBkNnRZaVFJQUFBUUlFQ0JBZ2NMZ0NlenBQRnhJYzdxL1VuL1pNVVBBbkVqYzhGSWlEMEZsOHY0NTUxMkhCYU9Qbm1KY1JHTnlPYjB3RUNCQWdRSUFBQVFJRWpsbGdFeEFzdytDYkhUdU1LMy9IbFFSM085NnV6ZTFKd0pzWjdnbSt5MlkzeitxZlJyL2o0TERyYWJ4UHd2L0VBWEVWOCttdU4yNTdCQWdRSUVDQUFBRUNCT1lnTUFLQ21HK2psMy9Hdk91UTRGTnNVMGdRQ01jMENRcU9hYlMzM05lUkhNWThyaXo0YWNzU1UxZTdEd3pXY1lBOG4xck0rZ1FJRUNCQWdBQUJBZ1E2Q093NUlCaEVQOFhqZ0l2eGVLQ0RseDd6Qkx6MElNL3lLQ3FOZzFYczZGWE0rM2dwd3IzeHVMcmhLZzVZcS9zYi9FK0FBQUVDQkFnUUlFRGdFQVRpZlBzMDltTVI4MlhNK3pybi9tMXMzL2wyS0J6cEpDZzQwb0dmc3R0eDhCcFhGNnhpL2pDbFRzSzY0d0MyaW5tRUJyZnh2NGtBQVFJRUNCQWdRSUJBUzRFNHh6NlB4aGN4ajZ0cDl6bU5KK1VXY1g1OXM4OG1iSHUvQW9LQy9mcTMzbm9jek1hVkJkL1BaQ2ZHSnlXc1lyNk9nOXJkVEhyU0JnRUNCQWdRSUVDQUFJRm5CUjVjUGJDSWhYYjkzZ05QOWZVcGJod2hnZlBwcDNTTzZEWkJ3UkVOZHNXdWJwTFA2Nmk5cjh1aW50cXQ4V2tKSXpBWWZaa0lFQ0JBZ0FBQkFnUUl6RVpnRXc1Y1JFT0xtUGQ5aGU2OWk1Y2EzRXY0LzNjQlFZRmZoQjM0dVh3QUFCeHZTVVJCVk1rQ2NiQTdpU0tybUQ5T0xwWmJZQnp3Umxpd0h2OUxSa1BCUklBQUFRSUVDQkFnc0hPQk9GOCtpNDB1WWo2UGVTN2hRTFR5KytTbEJ2Y1MvdjlEUUZEd0I0VXZwZ3JFQVhBa282dVk1M1Ixd2NQZEdpOVArRDA0aU5EZzV1RVBmRTJBQUFFQ0JBZ1FJRUFnUzJBVERKeEh2ZnQ1cnVmSFA4WjU4VEw2TkJINFFrQlE4QVdIYjZZS2JLNHVXRWFkNzZmV0tsNS9YRzJ3M3N3M2NZQWNYNXNJRUNCQWdBQUJBZ1FJdkVzZ3puOVBZNFZ4eGNDWXp6Zi96elVZaVBaK24xeEZjQy9oL3ljRkJBVlBzcmh4cWtBY01NK2p4bFhNSDZiVzJ1SDY0NHFEY2FYQm1HK0ZCenVVdHlrQ0JBZ1FJRUNBd0l3Rk5rK0dqU0RnSk9ieC8rbG1IbC9QUFJTSUZyK1lYRVh3Qllkdm5oSVFGRHlsNHJZMGdUaW9McVBZWmN6ZERxRDNCci9HRjdjeHIyTWUwM3I4STBRWUNpWUNCQWdRSUVDQXdId0Y0angwRWQyZGJ0SGgrWU4xeHZweitEU0NCeTF0L2VWNFVteDhvc0h0MWhXc2VEUUNnb0tqR2VyOTdlZ21nYjJLRHZiOW1iQVZDT01sRERjUEN0L0cxMk0yRVNCQWdBQUJBZ1FJN0ZkZ0Vacy9sQWY1VXlUSEUxK1hFUkJjVHlsaTNlTVNFQlFjMTNqdmRXOGpNRGlMQmtaZzhPMWVHN0Z4QWdRSUVDQkFnQUFCQW9jdk1KN1FHdWZlVnhFUzNCMys3dHJEVEFGQlFhYW1XbThTaU1EZ1BCWWNCNjFPNzEvd3BuMnpFQUVDQkFnUUlFQ0FBSUVaQ1B3Y1BTeTl6R0FHSTlHMGhYOXIycmUyR3d2RUFXc2Q4MW5zd3Q5akhwZENtUWdRSUVDQUFBRUNCQWdRbUM0d0FvSy94cm0yOXlLWWJublVGVnhSY05URFA0K2QzN3pSekRLNjhScXllUXlKTGdnUUlFQ0FBQUVDQkhvSnVJS2cxM2pOdmx0QndleUg2SGdhak1EZ0l2YjJNbWJ2WVhBOHcyNVBDUkFnUUlBQUFRSUV0aGNRRUd4dlo4MFhCQVFGTCtENDBYNEVOdTloc0lpdGY3ZWZEbXlWQUFFQ0JBZ1FJRUNBd0d3Rnhwc1VybUllYjFKNEcvK2JDS1FMQ0FyU1NSWE1Fb2pBNERScWpTc01GakYvSGJPSkFBRUNCQWdRSUVDQXdMRUsvQm83dm96NU9nS0N1Mk5Gc04rN0VSQVU3TWJaVmlZS2JON0hZQkZsdkN4aG9xWFZDUkFnUUlBQUFRSUUyZ2lNcXdldVkxNUZPTEJ1MDdWRzJ3c0lDdG9QNFhIdHdPWXFnMFhzOVppOStXRWdtQWdRSUVDQUFBRUNCQTVPNEhQczBTcG1WdzhjM05EMjJDRkJRWTl4MHVVVEFoRWFuTVhOaTgzc3BRbFBHTG1KQUFFQ0JBZ1FJRUNnamNBdjBla3E1aEVPM01iL0pnSjdFeEFVN0kzZWhqTUZJalE0ajNvWG05bVZCcG00YWhFZ1FJQUFBUUlFQ0ZRSmZJckM0NlVGYStGQUZiRzYyd2dJQ3JaUnM4NnNCVFpYR3B4SGt5TTQ4SjRHc3g0dHpSRWdRSUFBQVFJRWprcGdYRFd3SG5NRUF5TWdNQkdZcFlDZ1lKYkRvcWtzZ1FnTlRxTFcrWVA1UTFadGRRZ1FJRUNBQUFFQ0JBaThJakRlYStBbTV2V1lJeHk0aS85TkJHWXZJQ2lZL1JCcE1GTmdFeHljUmMzenpUeSs5djRHZ1dBaVFJQUFBUUlFQ0JEWVdtQjhPc0VJQlA2WUl4UVlYNXNJdEJRUUZMUWNOazFuQ2tSNGNCcjF4bndlOHdnT1RtTjI1VUVnbUFnUUlFQ0FBQUVDQlA0UUdDOGJ1SXY1OXRGODQwcUJFREVkbElDZzRLQ0cwODVrQ2p3SUVFWjRjQkx6NldZZVh3c1NBc0ZFZ0FBQkFnUUlFRGh3Z2I5NUw0RURIMkc3OTZTQW9PQkpGamNTZUx0QUJBcm5UeXo5MUcxUExPWW1BZ1FJRUNCQWdBQ0JHUXVzSWlpNG5YRi9XaU5RSWlBb0tHRlZsQUFCQWdRSUVDQkFnQUFCQWdRSTlCVDR0NTV0NjVvQUFRSUVDQkFnUUlBQUFRSUVDQkNvRUJBVVZLaXFTWUFBQVFJRUNCQWdRSUFBQVFJRW1nb0lDcG9PbkxZSkVDQkFnQUFCQWdRSUVDQkFnRUNGZ0tDZ1FsVk5BZ1FJRUNCQWdBQUJBZ1FJRUNEUVZFQlEwSFRndEUyQUFBRUNCQWdRSUVDQUFBRUNCQ29FQkFVVnFtb1NJRUNBQUFFQ0JBZ1FJRUNBQUlHbUFvS0NwZ09uYlFJRUNCQWdRSUFBQVFJRUNCQWdVQ0VnS0toUVZaTUFBUUlFQ0JBZ1FJQUFBUUlFQ0RRVkVCUTBIVGh0RXlCQWdBQUJBZ1FJRUNCQWdBQ0JDZ0ZCUVlXcW1nUUlFQ0JBZ0FBQkFnUUlFQ0JBb0ttQW9LRHB3R21iQUFFQ0JBZ1FJRUNBQUFFQ0JBaFVDQWdLS2xUVkpFQ0FBQUVDQkFnUUlFQ0FBQUVDVFFVRUJVMEhUdHNFQ0JBZ1FJQUFBUUlFQ0JBZ1FLQkNRRkJRb2FvbUFRSUVDQkFnUUlBQUFRSUVDQkJvS2lBb2FEcHcyaVpBZ0FBQkFnUUlFQ0JBZ0FBQkFoVUNnb0lLVlRVSkVDQkFnQUFCQWdRSUVDQkFnRUJUQVVGQjA0SFROZ0VDQkFnUUlFQ0FBQUVDQkFnUXFCQVFGRlNvcWttQUFBRUNCQWdRSUVDQUFBRUNCSm9LQ0FxYURweTJDUkFnUUlBQUFRSUVDQkFnUUlCQWhZQ2dvRUpWVFFJRUNCQWdRSUFBQVFJRUNCQWcwRlJBVU5CMDRMUk5nQUFCQWdRSUVDQkFnQUFCQWdRcUJBUUZGYXBxRWlCQWdBQUJBZ1FJRUNCQWdBQ0JwZ0tDZ3FZRHAyMENCQWdRSUVDQUFBRUNCQWdRSUZBaElDaW9VRldUQUFFQ0JBZ1FJRUNBQUFFQ0JBZzBGUkFVTkIwNGJSTWdRSUFBQVFJRUNCQWdRSUFBZ1FvQlFVR0ZxcG9FQ0JBZ1FJQUFBUUlFQ0JBZ1FLQ3BnS0NnNmNCcG13QUJBZ1FJRUNCQWdBQUJBZ1FJVkFnSUNpcFUxU1JBZ0FBQkFnUUlFQ0JBZ0FBQkFrMEZCQVZOQjA3YkJBZ1FJRUNBQUFFQ0JBZ1FJRUNnUWtCUVVLR3FKZ0VDQkFnUUlFQ0FBQUVDQkFnUWFDb2dLR2c2Y05vbVFJQUFBUUlFQ0JBZ1FJQUFBUUlWQW9LQ0NsVTFDUkFnUUlBQUFRSUVDQkFnUUlCQVV3RkJRZE9CMHpZQkFnUUlFQ0JBZ0FBQkFnUUlFS2dRRUJSVXFLcEpnQUFCQWdRSUVDQkFnQUFCQWdTYUNnZ0ttZzZjdGdrUUlFQ0FBQUVDQkFnUUlFQ0FRSVdBb0tCQ1ZVMENCQWdRSUVDQUFBRUNCQWdRSU5CVVFGRFFkT0MwVFlBQUFRSUVDQkFnUUlBQUFRSUVLZ1FFQlJXcWFoSWdRSUFBQVFJRUNCQWdRSUFBZ2FZQ2dvS21BNmR0QWdRSUVDQkFnQUFCQWdRSUVDQlFJU0FvcUZCVmt3QUJBZ1FJRUNCQWdBQUJBZ1FJTkJVUUZEUWRPRzBUSUVDQUFBRUNCQWdRSUVDQUFJRUtBVUZCaGFxYUJBZ1FJRUNBQUFFQ0JBZ1FJRUNncVlDZ29PbkFhWnNBQVFJRUNCQWdRSUFBQVFJRUNGUUlDQW9xVk5Va1FJQUFBUUlFQ0JBZ1FJQUFBUUpOQlFRRlRRZE8yd1FJRUNCQWdBQUJBZ1FJRUNCQW9FSkFVRkNocWlZQkFnUUlFQ0JBZ0FBQkFnUUlFR2dxSUNob09uRGFKa0NBQUFFQ0JBZ1FJRUNBQUFFQ0ZRS0NnZ3BWTlFrUUlFQ0FBQUVDQkFnUUlFQ0FRRk1CUVVIVGdkTTJBUUlFQ0JBZ1FJQUFBUUlFQ0JDb0VCQVVWS2lxU1lBQUFRSUVDQkFnUUlBQUFRSUVtZ29JQ3BvT25MWUpFQ0JBZ0FBQkFnUUlFQ0JBZ0VDRmdLQ2dRbFZOQWdRSUVDQkFnQUFCQWdRSUVDRFFWRUJRMEhUZ3RFMkFBQUVDQkFnUUlFQ0FBQUVDQkNvRUJBVVZxbW9TSUVDQUFBRUNCQWdRSUVDQUFJR21Bb0tDcGdPbmJRSUVDQkFnUUlBQUFRSUVDQkFnVUNFZ0tLaFFWWk1BQVFJRUNCQWdRSUFBQVFJRUNEUVZFQlEwSFRodEV5QkFnQUFCQWdRSUVDQkFnQUNCQ2dGQlFZV3FtZ1FJRUNCQWdBQUJBZ1FJRUNCQW9LbUFvS0Rwd0dtYkFBRUNCQWdRSUVDQUFBRUNCQWhVQ0FnS0tsVFZKRUNBQUFFQ0JBZ1FJRUNBQUFFQ1RRVUVCVTBIVHRzRUNCQWdRSUFBQVFJRUNCQWdRS0JDUUZCUW9hb21BUUlFQ0JBZ1FJQUFBUUlFQ0JCb0tpQW9hRHB3MmlaQWdBQUJBZ1FJRUNCQWdBQUJBaFVDZ29JS1ZUVUpFQ0JBZ0FBQkFnUUlFQ0JBZ0VCVEFVRkIwNEhUTmdFQ0JBZ1FJRUNBQUFFQ0JBZ1FxQkFRRkZTb3FrbUFBQUVDQkFnUUlFQ0FBQUVDQkpvS0NBcWFEcHkyQ1JBZ1FJQUFBUUlFQ0JBZ1FJQkFoWUNnb0VKVlRRSUVDQkFnUUlBQUFRSUVDQkFnMEZSQVVOQjA0TFJOZ0FBQkFnUUlFQ0JBZ0FBQkFnUXFCQVFGRmFwcUVpQkFnQUFCQWdRSUVDQkFnQUNCcGdLQ2dxWURwMjBDQkFnUUlFQ0FBQUVDQkFnUUlGQWhJQ2lvVUZXVEFBRUNCQWdRSUVDQUFBRUNCQWcwRlJBVU5CMDRiUk1nUUlBQUFRSUVDQkFnUUlBQWdRb0JRVUdGcXBvRUNCQWdRSUFBQVFJRUNCQWdRS0NwZ0tDZzZjQnBtd0FCQWdRSUVDQkFnQUFCQWdRSVZBZ0lDaXBVMVNSQWdBQUJBZ1FJRUNCQWdBQUJBazBGQkFWTkIwN2JCQWdRSUVDQUFBRUNCQWdRSUVDZ1FrQlFVS0dxSmdFQ0JBZ1FJRUNBQUFFQ0JBZ1FhQ29nS0dnNmNOb21RSUFBQVFJRUNCQWdRSUFBQVFJVkFvS0NDbFUxQ1JBZ1FJQUFBUUlFQ0JBZ1FJQkFVd0ZCUWRPQjB6WUJBZ1FJRUNCQWdBQUJBZ1FJRUtnUUVCUlVxS3BKZ0FBQkFnUUlFQ0JBZ0FBQkFnU2FDZ2dLbWc2Y3Rna1FJRUNBQUFFQ0JBZ1FJRUNBUUlXQW9LQkNWVTBDQkFnUUlFQ0FBQUVDQkFnUUlOQlVRRkRRZE9DMFRZQUFBUUlFQ0JBZ1FJQUFBUUlFS2dRRUJSV3FhaElnUUlBQUFRSUVDQkFnUUlBQWdhWUNnb0ttQTZkdEFnUUlFQ0JBZ0FBQkFnUUlFQ0JRSVNBb3FGQlZrd0FCQWdRSUVDQkFnQUFCQWdRSU5CVVFGRFFkT0cwVElFQ0FBQUVDQkFnUUlFQ0FBSUVLQVVGQmhhcWFCQWdRSUVDQUFBRUNCQWdRSUVDZ3FZQ2dvT25BYVpzQUFRSUVDQkFnUUlBQUFRSUVDRlFJQ0FvcVZOVWtRSUFBQVFJRUNCQWdRSUFBQVFKTkJRUUZUUWRPMndRSUVDQkFnQUFCQWdRSUVDQkFvRUpBVUZDaHFpWUJBZ1FJRUNCQWdBQUJBZ1FJRUdncUlDaG9PbkRhSmtDQUFBRUNCQWdRSUVDQUFBRUNGUUtDZ2dwVk5Ra1FJRUNBQUFFQ0JBZ1FJRUNBUUZNQlFVSFRnZE0yQVFJRUNCQWdRSUFBQVFJRUNCQ29FQkFVVktpcVNZQUFBUUlFQ0JBZ1FJQUFBUUlFbWdvSUNwb09uTFlKRUNCQWdBQUJBZ1FJRUNCQWdFQ0ZnS0NnUWxWTkFnUUlFQ0JBZ0FBQkFnUUlFQ0RRVkVCUTBIVGd0RTJBQUFFQ0JBZ1FJRUNBQUFFQ0JDb0VCQVVWcW1vU0lFQ0FBQUVDQkFnUUlFQ0FBSUdtQW9LQ3BnT25iUUlFQ0JBZ1FJQUFBUUlFQ0JBZ1VDRWdLS2hRVlpNQUFRSUVDQkFnUUlBQUFRSUVDRFFWRUJRMEhUaHRFeUJBZ0FBQkFnUUlFQ0JBZ0FDQkNnRkJRWVdxbWdRSUVDQkFnQUFCQWdRSUVDQkFvS21Bb0tEcHdHbWJBQUVDQkFnUUlFQ0FBQUVDQkFoVUNBZ0tLbFRWSkVDQUFBRUNCQWdRSUVDQUFBRUNUUVVFQlUwSFR0c0VDQkFnUUlBQUFRSUVDQkFnUUtCQ1FGQlFvYW9tQVFJRUNCQWdRSUFBQVFJRUNCQm9LaUFvYURwdzJpWkFnQUFCQWdRSUVDQkFnQUFCQWhVQ2dvSUtWVFVKRUNCQWdBQUJBZ1FJRUNCQWdFQlRBVUZCMDRIVE5nRUNCQWdRSUVDQUFBRUNCQWdRcUJBUUZGU29xa21BQUFFQ0JBZ1FJRUNBQUFFQ0JKb0tDQXFhRHB5MkNSQWdRSUFBQVFJRUNCQWdRSUJBaFlDZ29FSlZUUUlFQ0JBZ1FJQUFBUUlFQ0JBZzBGUkFVTkIwNExSTmdBQUJBZ1FJRUNCQWdBQUJBZ1FxQkFRRkZhcHFFaUJBZ0FBQkFnUUlFQ0JBZ0FDQnBnS0NncVlEcDIwQ0JBZ1FJRUNBQUFFQ0JBZ1FJRkFoSUNpb1VGV1RBQUVDQkFnUUlFQ0FBQUVDQkFnMEZSQVVOQjA0YlJNZ1FJQUFBUUlFQ0JBZ1FJQUFnUW9CUVVHRnFwb0VDQkFnUUlBQUFRSUVDQkFnUUtDcGdLQ2c2Y0JwbXdBQkFnUUlFQ0JBZ0FBQkFnUUlWQWdJQ2lwVTFTUkFnQUFCQWdRSUVDQkFnQUFCQWswRkJBVk5CMDdiQkFnUUlFQ0FBQUVDQkFnUUlFQ2dRa0JRVUtHcUpnRUNCQWdRSUVDQUFBRUNCQWdRYUNvZ0tHZzZjTm9tUUlBQUFRSUVDQkFnUUlBQUFRSVZBb0tDQ2xVMUNSQWdRSUFBQVFJRUNCQWdRSUJBVXdGQlFkT0IwellCQWdRSUVDQkFnQUFCQWdRSUVLZ1FFQlJVcUtwSmdBQUJBZ1FJRUNCQWdBQUJBZ1NhQ2dnS21nNmN0Z2tRSUVDQUFBRUNCQWdRSUVDQVFJV0FvS0JDVlUwQ0JBZ1FJRUNBQUFFQ0JBZ1FJTkJVUUZEUWRPQzBUWUFBQVFJRUNCQWdRSUFBQVFJRUtnUUVCUldxYWhJZ1FJQUFBUUlFQ0JBZ1FJQUFnYVlDZ29LbUE2ZHRBZ1FJRUNCQWdBQUJBZ1FJRUNCUUlTQW9xRkJWa3dBQkFnUUlFQ0JBZ0FBQkFnUUlOQlVRRkRRZE9HMFRJRUNBQUFFQ0JBZ1FJRUNBQUlFS0FVRkJoYXFhQkFnUUlFQ0FBQUVDQkFnUUlFQ2dxWUNnb09uQWFac0FBUUlFQ0JBZ1FJQUFBUUlFQ0ZRSUNBb3FWTlVrUUlBQUFRSUVDQkFnUUlBQUFRSk5CUVFGVFFkTzJ3UUlFQ0JBZ0FBQkFnUUlFQ0JBb0VKQVVGQ2hxaVlCQWdRSUVDQkFnQUFCQWdRSUVHZ3FJQ2hvT25EYUprQ0FBQUVDQkFnUUlFQ0FBQUVDRlFLQ2dncFZOUWtRSUVDQUFBRUNCQWdRSUVDQVFGTUJRVUhUZ2RNMkFRSUVDQkFnUUlBQUFRSUVDQkNvRUJBVVZLaXFTWUFBQVFJRUNCQWdRSUFBQVFJRW1nb0lDcG9PbkxZSkVDQkFnQUFCQWdRSUVDQkFnRUNGZ0tDZ1FsVk5BZ1FJRUNCQWdBQUJBZ1FJRUNEUVZFQlEwSFRndEUyQUFBRUNCQWdRSUVDQUFBRUNCQ29FQkFVVnFtb1NJRUNBQUFFQ0JBZ1FJRUNBQUlHbUFvS0NwZ09uYlFJRUNCQWdRSUFBQVFJRUNCQWdVQ0VnS0toUVZaTUFBUUlFQ0JBZ1FJQUFBUUlFQ0RRVkVCUTBIVGh0RXlCQWdBQUJBZ1FJRUNCQWdBQ0JDZ0ZCUVlXcW1nUUlFQ0JBZ0FBQkFnUUlFQ0JBb0ttQW9LRHB3R21iQUFFQ0JBZ1FJRUNBQUFFQ0JBaFVDQWdLS2xUVkpFQ0FBQUVDQkFnUUlFQ0FBQUVDVFFVRUJVMEhUdHNFQ0JBZ1FJQUFBUUlFQ0JBZ1FLQkNRRkJRb2FvbUFRSUVDQkFnUUlBQUFRSUVDQkJvS2lBb2FEcHcyaVpBZ0FBQkFnUUlFQ0JBZ0FBQkFoVUNnb0lLVlRVSkVDQkFnQUFCQWdRSUVDQkFnRUJUQVVGQjA0SFROZ0VDQkFnUUlFQ0FBQUVDQkFnUXFCQVFGRlNvcWttQUFBRUNCQWdRSUVDQUFBRUNCSm9LQ0FxYURweTJDUkFnUUlBQUFRSUVDQkFnUUlCQWhZQ2dvRUpWVFFJRUNCQWdRSUFBQVFJRUNCQWcwRlJBVU5CMDRMUk5nQUFCQWdRSUVDQkFnQUFCQWdRcUJBUUZGYXBxRWlCQWdBQUJBZ1FJRUNCQWdBQ0JwZ0tDZ3FZRHAyMENCQWdRSUVDQUFBRUNCQWdRSUZBaElDaW9VRldUQUFFQ0JBZ1FJRUNBQUFFQ0JBZzBGUkFVTkIwNGJSTWdRSUFBQVFJRUNCQWdRSUFBZ1FvQlFVR0ZxcG9FQ0JBZ1FJQUFBUUlFQ0JBZ1FLQ3BnS0NnNmNCcG13QUJBZ1FJRUNCQWdBQUJBZ1FJVkFnSUNpcFUxU1JBZ0FBQkFnUUlFQ0JBZ0FBQkFrMEZCQVZOQjA3YkJBZ1FJRUNBQUFFQ0JBZ1FJRUNnUWtCUVVLR3FKZ0VDQkFnUUlFQ0FBQUVDQkFnUWFDb2dLR2c2Y05vbVFJQUFBUUlFQ0JBZ1FJQUFBUUlWQW9LQ0NsVTFDUkFnUUlBQUFRSUVDQkFnUUlCQVV3RkJRZE9CMHpZQkFnUUlFQ0JBZ0FBQkFnUUlFS2dRRUJSVXFLcEpnQUFCQWdRSUVDQkFnQUFCQWdTYUNnZ0ttZzZjdGdrUUlFQ0FBQUVDQkFnUUlFQ0FRSVdBb0tCQ1ZVMENCQWdRSUVDQUFBRUNCQWdRSU5CVVFGRFFkT0MwVFlBQUFRSUVDQkFnUUlBQUFRSUVLZ1FFQlJXcWFoSWdRSUFBQVFJRUNCQWdRSUFBZ2FZQ2dvS21BNmR0QWdRSUVDQkFnQUFCQWdRSUVDQlFJU0FvcUZCVmt3QUJBZ1FJRUNCQWdBQUJBZ1FJTkJVUUZEUWRPRzBUSUVDQUFBRUNCQWdRSUVDQUFJRUtBVUZCaGFxYUJBZ1FJRUNBQUFFQ0JBZ1FJRUNncVlDZ29PbkFhWnNBQVFJRUNCQWdRSUFBQVFJRUNGUUlDQW9xVk5Va1FJQUFBUUlFQ0JBZ1FJQUFBUUpOQlFRRlRRZE8yd1FJRUNCQWdBQUJBZ1FJRUNCQW9FSkFVRkNocWlZQkFnUUlFQ0JBZ0FBQkFnUUlFR2dxSUNob09uRGFKa0NBQUFFQ0JBZ1FJRUNBQUFFQ0ZRS0NnZ3BWTlFrUUlFQ0FBQUVDQkFnUUlFQ0FRRk1CUVVIVGdkTTJBUUlFQ0JBZ1FJQUFBUUlFQ0JDb0VCQVVWS2lxU1lBQUFRSUVDQkFnUUlBQUFRSUVtZ29JQ3BvT25MWUpFQ0JBZ0FBQkFnUUlFQ0JBZ0VDRmdLQ2dRbFZOQWdRSUVDQkFnQUFCQWdRSUVDRFFWRUJRMEhUZ3RFMkFBQUVDQkFnUUlFQ0FBQUVDQkNvRUJBVVZxbW9TSUVDQUFBRUNCQWdRSUVDQUFJR21Bb0tDcGdPbmJRSUVDQkFnUUlBQUFRSUVDQkFnVUNFZ0tLaFFWWk1BQVFJRUNCQWdRSUFBQVFJRUNEUVZFQlEwSFRodEV5QkFnQUFCQWdRSUVDQkFnQUNCQ2dGQlFZV3FtZ1FJRUNCQWdBQUJBZ1FJRUNCQW9LbUFvS0Rwd0dtYkFBRUNCQWdRSUVDQUFBRUNCQWhVQ0FnS0tsVFZKRUNBQUFFQ0JBZ1FJRUNBQUFFQ1RRVUVCVTBIVHRzRUNCQWdRSUFBQVFJRUNCQWdRS0JDUUZCUW9hb21BUUlFQ0JBZ1FJQUFBUUlFQ0JCb0tpQW9hRHB3MmlaQWdBQUJBZ1FJRUNCQWdBQUJBaFVDZ29JS1ZUVUpFQ0JBZ0FBQkFnUUlFQ0JBZ0VCVEFVRkIwNEhUTmdFQ0JBZ1FJRUNBQUFFQ0JBZ1FxQkFRRkZTb3FrbUFBQUVDQkFnUUlFQ0FBQUVDQkpvS0NBcWFEcHkyQ1JBZ1FJQUFBUUlFQ0JBZ1FJQkFoWUNnb0VKVlRRSUVDQkFnUUlBQUFRSUVDQkFnMEZSQVVOQjA0TFJOZ0FBQkFnUUlFQ0JBZ0FBQkFnUXFCQVFGRmFwcUVpQkFnQUFCQWdRSUVDQkFnQUNCcGdLQ2dxWURwMjBDQkFnUUlFQ0FBQUVDQkFnUUlGQWhJQ2lvVUZXVEFBRUNCQWdRSUVDQUFBRUNCQWcwRlJBVU5CMDRiUk1nUUlBQUFRSUVDQkFnUUlBQWdRb0JRVUdGcXBvRUNCQWdRSUFBQVFJRUNCQWdRS0NwZ0tDZzZjQnBtd0FCQWdRSUVDQkFnQUFCQWdRSVZBZ0lDaXBVMVNSQWdBQUJBZ1FJRUNCQWdBQUJBazBGQkFWTkIwN2JCQWdRSUVDQUFBRUNCQWdRSUVDZ1FrQlFVS0dxSmdFQ0JBZ1FJRUNBQUFFQ0JBZ1FhQ29nS0dnNmNOb21RSUFBQVFJRUNCQWdRSUFBQVFJVkFvS0NDbFUxQ1JBZ1FJQUFBUUlFQ0JBZ1FJQkFVd0ZCUWRPQjB6WUJBZ1FJRUNCQWdBQUJBZ1FJRUtnUUVCUlVxS3BKZ0FBQkFnUUlFQ0JBZ0FBQkFnU2FDZ2dLbWc2Y3Rna1FJRUNBQUFFQ0JBZ1FJRUNBUUlXQW9LQkNWVTBDQkFnUUlFQ0FBQUVDQkFnUUlOQlVRRkRRZE9DMFRZQUFBUUlFQ0JBZ1FJQUFBUUlFS2dRRUJSV3FhaElnUUlBQUFRSUVDQkFnUUlBQWdhWUNnb0ttQTZkdEFnUUlFQ0JBZ0FBQkFnUUlFQ0JRSVNBb3FGQlZrd0FCQWdRSUVDQkFnQUFCQWdRSU5CVVFGRFFkT0cwVElFQ0FBQUVDQkFnUUlFQ0FBSUVLQVVGQmhhcWFCQWdRSUVDQUFBRUNCQWdRSUVDZ3FZQ2dvT25BYVpzQUFRSUVDQkFnUUlBQUFRSUVDRlFJQ0FvcVZOVWtRSUFBQVFJRUNCQWdRSUFBQVFKTkJRUUZUUWRPMndRSUVDQkFnQUFCQWdRSUVDQkFvRUpBVUZDaHFpWUJBZ1FJRUNCQWdBQUJBZ1FJRUdncUlDaG9PbkRhSmtDQUFBRUNCQWdRSUVDQUFBRUNGUUtDZ2dwVk5Ra1FJRUNBQUFFQ0JBZ1FJRUNBUUZNQlFVSFRnZE0yQVFJRUNCQWdRSUFBQVFJRUNCQ29FQkFVVktpcVNZQUFBUUlFQ0JBZ1FJQUFBUUlFbWdvSUNwb09uTFlKRUNCQWdBQUJBZ1FJRUNCQWdFQ0ZnS0NnUWxWTkFnUUlFQ0JBZ0FBQkFnUUlFQ0RRVkVCUTBIVGd0RTJBQUFFQ0JBZ1FJRUNBQUFFQ0JDb0VCQVVWcW1vU0lFQ0FBQUVDQkFnUUlFQ0FBSUdtQW9LQ3BnT25iUUlFQ0JBZ1FJQUFBUUlFQ0JBZ1VDRWdLS2hRVlpNQUFRSUVDQkFnUUlBQUFRSUVDRFFWRUJRMEhUaHRFeUJBZ0FBQkFnUUlFQ0JBZ0FDQkNnRkJRWVdxbWdRSUVDQkFnQUFCQWdRSUVDQkFvS21Bb0tEcHdHbWJBQUVDQkFnUUlFQ0FBQUVDQkFoVUNBZ0tLbFRWSkVDQUFBRUNCQWdRSUVDQUFBRUNUUVVFQlUwSFR0c0VDQkFnUUlBQUFRSUVDQkFnUUtCQ1FGQlFvYW9tQVFJRUNCQWdRSUFBQVFJRUNCQm9LaUFvYURwdzJpWkFnQUFCQWdRSUVDQkFnQUFCQWhVQ2dvSUtWVFVKRUNCQWdBQUJBZ1FJRUNCQWdFQlRBVUZCMDRIVE5nRUNCQWdRSUVDQUFBRUNCQWdRcUJBUUZGU29xa21BQUFFQ0JBZ1FJRUNBQUFFQ0JKb0tDQXFhRHB5MkNSQWdRSUFBQVFJRUNCQWdRSUJBaFlDZ29FSlZUUUlFQ0JBZ1FJQUFBUUlFQ0JBZzBGUkFVTkIwNExSTmdBQUJBZ1FJRUNCQWdBQUJBZ1FxQkFRRkZhcHFFaUJBZ0FBQkFnUUlFQ0JBZ0FDQnBnS0NncVlEcDIwQ0JBZ1FJRUNBQUFFQ0JBZ1FJRkFoSUNpb1VGV1RBQUVDQkFnUUlFQ0FBQUVDQkFnMEZSQVVOQjA0YlJNZ1FJQUFBUUlFQ0JBZ1FJQUFnUW9CUVVHRnFwb0VDQkFnUUlBQUFRSUVDQkFnUUtDcGdLQ2c2Y0JwbXdBQkFnUUlFQ0JBZ0FBQkFnUUlWQWdJQ2lwVTFTUkFnQUFCQWdRSUVDQkFnQUFCQWswRkJBVk5CMDdiQkFnUUlFQ0FBQUVDQkFnUUlFQ2dRa0JRVUtHcUpnRUNCQWdRSUVDQUFBRUNCQWdRYUNvZ0tHZzZjTm9tUUlBQUFRSUVDQkFnUUlBQUFRSVZBb0tDQ2xVMUNSQWdRSUFBQVFJRUNCQWdRSUJBVTRIL0Q0M1Nvd3NFN1lmckFBQUFBRWxGVGtTdVFtQ0MiIGhlaWdodD0iMTAzNCIgd2lkdGg9IjEwMzQiIHk9Ii0yNzMiIHg9Ii05MCIgaWQ9ImNhdGVnb3J5LWNsb3VkLXBsYXRmb3JtIi8+JiN4YTsgICAgPC9nPiYjeGE7PC9zdmc+;" vertex="1" parent="N6adh-egThwTnPxHXaX3-16">
          <mxGeometry x="2.9600000000000364" width="44.07" height="25" as="geometry" />
        </mxCell>
        <mxCell id="N6adh-egThwTnPxHXaX3-15" value="BTP" style="text;html=1;align=center;verticalAlign=middle;resizable=0;points=[];autosize=1;strokeColor=none;fillColor=none;" vertex="1" parent="N6adh-egThwTnPxHXaX3-16">
          <mxGeometry y="18" width="50" height="30" as="geometry" />
        </mxCell>
      </root>
    </mxGraphModel>
  </diagram>
</mxfile>
